<svg width="134" height="33" viewBox="0 0 134 33" fill="none" xmlns="http://www.w3.org/2000/svg">
<g clip-path="url(#clip0_19_1388)">
<path d="M76.229 10.7565C76.229 6.90544 76.2961 3.31992 76.4974 0L66.2256 1.92555V2.85513L67.2327 2.98793C67.9712 3.05433 68.4412 3.31992 68.7097 3.71831C68.9783 4.1831 69.1797 4.84708 69.3139 5.84306C69.4482 7.76862 69.5825 12.1509 69.5153 19.0564C69.5153 25.8954 69.4482 30.2112 69.3139 31.8712C73.0065 32.668 75.8936 33 78.0419 33C82.0703 33 85.2257 31.8712 87.5082 29.5473C89.7908 27.2898 90.9991 24.1026 90.9991 20.1851C90.9991 17.0644 90.1269 14.4748 88.3811 12.4165C86.6353 10.3581 84.4199 9.36217 81.8019 9.36217C80.0561 9.36217 78.2432 9.82693 76.229 10.7565ZM76.4303 31.2072C76.2961 29.0825 76.1619 22.7082 76.1619 12.2837C76.7665 12.0845 77.5716 11.9517 78.5787 11.9517C80.1903 11.9517 81.4657 12.7485 82.4057 14.4085C83.3457 16.0684 83.8153 18.0604 83.8153 20.5835C83.8153 23.7042 83.2786 26.2274 82.2044 28.3521C81.1303 30.4105 79.7878 31.4728 78.109 31.4728C77.5716 31.34 77.0349 31.2737 76.4303 31.2072ZM27.6885 0.663984H0.833374V1.99195L2.24327 2.12475C3.31747 2.32394 4.05599 2.72233 4.52595 3.31992C4.99592 3.9839 5.26447 5.04628 5.3316 6.50704C5.86871 13.6781 5.86871 20.3843 5.3316 26.5594C5.19733 28.0201 4.92878 29.0825 4.52595 29.7465C4.05599 30.4105 3.31747 30.8089 2.24327 30.9416L0.833374 31.1409V32.4688H18.1549V31.1409L16.3422 31.0081C15.268 30.8753 14.5295 30.4105 14.0595 29.8129C13.5896 29.1489 13.321 28.0865 13.2538 26.6258C13.0525 23.9698 12.9182 20.9155 12.9182 17.5292L16.5436 17.5956C18.4906 17.662 19.8334 19.1227 20.5048 22.0443H21.8475V11.2213H20.5048C19.8334 14.0764 18.5578 15.5372 16.5436 15.6036L12.9182 15.67C12.9182 9.69413 13.0525 5.44466 13.2538 2.85513H18.5578C22.3174 2.85513 24.8687 5.24547 26.3457 10.0262L27.957 9.56133L27.6885 0.663984ZM24.533 21.1147C24.533 24.5674 25.5401 27.4226 27.4871 29.6801C29.434 31.9376 32.321 33 35.9465 33C39.5719 33 42.5259 31.8712 44.6743 29.5473C46.8228 27.2898 47.8298 24.4346 47.8298 20.9819C47.8298 17.5292 46.8228 14.6741 44.8758 12.4165C42.9288 10.159 40.0418 9.09656 36.4164 9.09656C32.791 9.09656 29.8369 10.2253 27.6885 12.5493C25.5401 14.8069 24.533 17.662 24.533 21.1147ZM39.5047 13.5453C40.3104 15.4708 40.6461 17.994 40.6461 21.0483C40.6461 28.0865 39.1691 31.5393 36.2822 31.5393C34.8051 31.5393 33.6637 30.5433 32.8581 28.5513C32.0525 26.5594 31.7168 24.0362 31.7168 21.0483C31.7168 14.0764 33.1938 10.6237 36.0807 10.6237C37.5577 10.5574 38.6991 11.5534 39.5047 13.5453ZM96.2365 29.6801C98.452 31.8712 101.271 33 104.629 33C106.71 33 108.522 32.6016 110.134 31.7384C111.745 30.9416 113.021 29.9456 113.894 28.7505L113.222 27.9537C111.745 29.0825 110.067 29.6137 108.12 29.6137C105.434 29.6137 103.352 28.7505 101.943 26.9577C100.466 25.165 99.7945 22.9075 99.9287 19.9859H114.296C114.296 16.7988 113.49 14.2092 111.812 12.1509C110.134 10.159 107.784 9.163 104.763 9.163C101.003 9.163 98.1158 10.3581 96.0345 12.6821C93.9533 15.006 92.9462 17.8612 92.9462 21.2475C92.9462 24.7002 94.0204 27.4889 96.2365 29.6801ZM101.204 13.0141C101.943 11.4205 102.883 10.6237 104.158 10.6237C106.172 10.6237 107.18 13.1469 107.18 18.2596L100.063 18.3924C100.13 16.4004 100.466 14.6076 101.204 13.0141ZM132.357 10.3581C130.544 9.5614 128.261 9.09656 125.508 9.09656C122.688 9.09656 120.473 9.82693 118.794 11.2213C117.116 12.6157 116.243 14.342 116.243 16.4004C116.243 18.1931 116.78 19.5875 117.787 20.5835C118.794 21.5794 120.406 22.4426 122.487 23.1731C124.367 23.837 125.71 24.501 126.381 25.0986C127.052 25.7626 127.455 26.493 127.455 27.4889C127.455 28.4185 127.119 29.2817 126.381 29.9456C125.71 30.6761 124.77 31.0081 123.561 31.0081C120.607 31.0081 118.392 28.8833 116.848 24.6338L115.706 24.9658L115.975 31.6056C118.392 32.5352 121.077 33 124.031 33C127.119 33 129.47 32.336 131.215 30.9416C132.96 29.6137 133.833 27.6881 133.833 25.2978C133.833 23.7042 133.431 22.3763 132.558 21.3803C131.685 20.3843 130.275 19.5211 128.261 18.7243C126.045 17.9276 124.501 17.1972 123.695 16.5332C122.89 15.8692 122.487 15.0724 122.487 14.0764C122.487 13.0805 122.755 12.2837 123.36 11.6197C123.964 10.9557 124.703 10.6901 125.643 10.6901C128.328 10.6901 130.275 12.6157 131.484 16.4004L132.625 16.0684L132.357 10.3581ZM67.7698 9.76057C66.8298 9.2958 65.8227 9.09656 64.6814 9.09656C63.5401 9.09656 62.3987 9.5614 61.1231 10.4909C59.8475 11.4205 58.9076 12.6821 58.1691 14.4085L58.2362 9.09656L48.0313 11.0885V12.0181L49.0384 12.0845C50.3139 12.2173 51.0524 13.2133 51.1867 15.006C51.5895 19.1227 51.5895 23.505 51.1867 28.1529C51.0524 29.9456 50.3139 30.8752 49.0384 31.0744L48.0313 31.2072V32.4688H62.2645V31.2072L60.4517 31.0744C59.1761 30.9416 58.4376 29.9456 58.3033 28.1529C57.9005 24.3018 57.8334 20.1851 58.1691 15.9356C58.5719 15.2716 59.4446 14.8732 60.7874 14.7404C62.1302 14.6076 63.6743 15.006 65.2857 15.9356L67.7698 9.76057Z" fill="black"/>
</g>
<defs>
<clipPath id="clip0_19_1388">
<rect width="133" height="33" fill="white" transform="translate(0.833374)"/>
</clipPath>
</defs>
</svg>
