<svg width="89" height="55" viewBox="0 0 89 55" fill="none" xmlns="http://www.w3.org/2000/svg">
<path d="M0 0H89V55H0V0ZM1.37187 53.642H87.6281V1.35802H1.37187V53.642Z" fill="black"/>
<path d="M43.4865 13.2L43.7491 13.2033L44.0394 13.2132L44.519 13.2428L44.8649 13.2747L45.231 13.3166L45.6125 13.3716L46.0074 13.4375L46.2111 13.4761L46.6226 13.5641L46.8341 13.6136L47.2579 13.7236C47.6139 13.8236 47.9766 13.9413 48.3393 14.0788L48.7731 14.2538C51.3675 15.3647 53.8217 17.5933 53.953 21.9702L53.9584 22.3399V22.6424C53.9584 23.4344 53.9218 24.0767 53.5568 24.4552C53.2609 24.795 52.8772 25.0128 52.2975 25.0525L52.0973 25.0591H48.1201C47.3214 25.0591 46.4558 24.7511 46.3123 23.4816L46.2956 23.2836C46.2588 22.4532 45.676 21.5841 43.669 21.5841C42.0058 21.5841 41.5597 22.6808 41.444 23.3694L41.4217 23.5466L41.4095 23.6961L41.4062 23.8127V32.2091L41.4139 32.3333L41.4306 32.4874C41.5219 33.1275 41.9313 34.2749 43.669 34.2749C45.5224 34.2749 46.2022 33.4774 46.2878 32.6799L46.2956 32.5753C46.3657 31.208 47.1967 30.8352 47.9999 30.8022L48.1201 30.8H52.243C52.9361 30.8 53.192 31.0266 53.5558 31.405C53.8884 31.7471 53.9485 32.2783 53.9563 32.9966L53.9584 33.5191C53.9584 40.2424 48.7409 42.6602 43.4131 42.6602C40.6518 42.6607 37.9974 41.6047 36.0061 39.7133C34.5354 38.335 33.266 35.5311 33.167 33.0363L33.1603 32.7261V22.9063C33.1603 19.9605 34.2183 17.8078 36.0428 16.0699C37.8306 14.3703 40.4583 13.2 43.4854 13.2H43.4865ZM29.5803 13.805C30.2745 13.8424 30.7484 14.1063 31.1133 14.4836C31.4114 14.828 31.7107 15.3889 31.7619 16.1413L31.7708 16.3724V19.3941C31.7708 19.8847 31.5872 20.4511 31.3325 20.7911C31.1301 21.0605 30.8678 21.2802 30.5659 21.4335C30.2099 21.6039 29.9774 21.6458 29.7761 21.6567L29.5814 21.66H26.4442C26.1026 21.66 25.988 21.9461 25.9513 22.1352L25.9346 22.2552L25.9324 22.3025V39.7891C25.899 40.5372 25.6598 41.0706 25.3461 41.4447L25.2393 41.5635C24.9111 41.9375 24.494 42.2202 23.9077 42.273L23.7074 42.2817H19.8025C19.1095 42.2433 18.6344 41.9408 18.2695 41.5635C17.938 41.1861 17.6365 40.7153 17.5842 40.008L17.5764 39.788V22.265C17.5764 21.7833 17.3651 21.6469 17.1359 21.6249L17.0658 21.6227H14.0365L13.8473 21.6116C13.7267 21.5996 13.6073 21.5779 13.4902 21.5467L13.2454 21.4444C12.9001 21.3011 12.6047 21.061 12.3955 20.7536C12.1396 20.4236 11.9961 19.9485 11.965 19.5305L11.9572 19.3566V16.335C11.9939 15.5044 12.2865 14.938 12.6514 14.5596C12.9795 14.2197 13.3968 13.8797 13.9819 13.8149L14.1833 13.8038H29.5803V13.805ZM63.2245 13.805C63.9176 13.805 64.4282 14.0689 64.7931 14.4463C65.1247 14.7894 65.4273 15.258 65.4785 15.9357L65.4862 16.1458V23.0208C65.4862 23.4322 65.5774 23.75 65.8956 23.805L65.998 23.8127H68.8793C69.212 23.8127 69.3621 23.5322 69.3867 23.1407L69.3911 23.0197V16.1458C69.3911 15.3538 69.7192 14.8236 70.0842 14.4463C70.4402 14.1108 70.8552 13.8644 71.4303 13.8138L71.6528 13.805H75.5932C76.2875 13.805 76.7981 14.0689 77.1619 14.4463C77.4912 14.7872 77.7893 15.2492 77.8739 15.9158L77.8928 16.1469V39.7133C77.8979 40.0281 77.8391 40.3407 77.7199 40.6326C77.6006 40.9245 77.4234 41.1898 77.1986 41.4127C76.8381 41.7538 76.4176 42.0321 75.8313 42.0838L75.6311 42.0925H71.6528C70.9597 42.0552 70.4491 41.7911 70.0842 41.4127C69.6822 41.0138 69.439 40.4851 69.3989 39.9233L69.3911 39.7144V32.461C69.3911 31.868 69.2353 31.7261 68.9528 31.7075L68.8804 31.7052H65.998C65.5908 31.7052 65.4984 31.8032 65.4873 32.3311V39.7122C65.4924 40.027 65.4336 40.3396 65.3143 40.6315C65.1952 40.9233 65.0179 41.1887 64.7931 41.4116C64.4327 41.7527 64.0122 42.031 63.4259 42.0827L63.2245 42.0914H59.2473C58.5542 42.0541 58.0436 41.79 57.6787 41.4116C57.2767 41.0127 57.0335 40.484 56.9934 39.9222L56.9856 39.7133V16.1447C56.9856 15.3527 57.3138 14.8225 57.6787 14.4452C58.0347 14.1097 58.4497 13.8633 59.0248 13.8127L59.2473 13.8038H63.2245V13.805ZM43.4499 14.3703C38.329 14.3703 34.5087 18.118 34.3685 23.078L34.3641 23.3596V32.2728C34.3641 37.3714 38.3056 41.3369 43.5232 41.3369C48.7409 41.3369 52.8271 38.5802 52.8271 33.4058C52.8271 32.3433 52.6668 31.8461 52.1652 31.7877L52.0606 31.7822H48.6674C48.0833 31.7822 47.467 31.8813 47.3358 32.7755L47.3169 32.9527C47.1722 34.75 45.7883 35.3122 44.658 35.4672L44.3687 35.5002L44.0984 35.5157L43.8515 35.5211C41.3183 35.5211 40.5651 34.1275 40.3537 33.1089L40.3148 32.8888L40.2915 32.6864L40.2792 32.505L40.2759 32.3488V23.3969L40.2837 23.2275L40.3014 23.0339L40.3148 22.9305L40.3537 22.7105C40.5651 21.6908 41.3183 20.2905 43.8515 20.2619L44.1451 20.2686L44.4499 20.2905C45.6848 20.4127 47.0754 20.9605 47.2957 22.6171L47.318 22.8294C47.3858 23.8249 47.9721 23.9844 48.5573 23.9986L52.0617 24.0008C52.6446 24.0008 52.8271 23.5091 52.8271 22.3761C52.8271 17.2391 48.6674 14.3692 43.4499 14.3692V14.3703ZM29.5814 14.9753H14.1844C13.6393 14.9753 13.1575 15.4692 13.0953 16.0566L13.0886 16.1843V19.5074C13.0886 19.7339 13.162 19.998 13.3445 20.1872C13.5002 20.3488 13.7372 20.4555 14.032 20.4819L14.1833 20.4897H17.9413C18.3763 20.4897 18.6578 20.8383 18.7023 21.1871L18.7079 21.2827V39.9025C18.7412 40.5019 19.1896 41.0355 19.7236 41.1036L19.8392 41.1113H23.7441C24.3226 41.1113 24.8055 40.6164 24.8677 40.0289L24.8744 39.9025V21.2827C24.8744 21.0033 24.999 20.5633 25.4773 20.4974L25.6042 20.4897H29.617C29.9819 20.4897 30.2734 20.3763 30.457 20.1872C30.6002 20.0311 30.6877 19.8328 30.7061 19.6228L30.7117 19.5074V16.1832C30.6784 15.5847 30.2311 15.0502 29.6971 14.983L29.5814 14.9753ZM63.2245 14.8994H59.2473C58.6354 14.8994 58.117 15.3933 58.0503 15.9808L58.0436 16.1083V39.8639C58.077 40.4986 58.5564 41.0013 59.1249 41.0663L59.2473 41.0728H63.2245C63.8374 41.0728 64.3548 40.6119 64.4215 39.9982L64.4282 39.8639L64.4293 31.3533L64.4427 31.2608C64.4727 31.0903 64.5684 30.7691 64.8577 30.6999L64.9756 30.6866H69.9017C70.2199 30.6866 70.3645 31.0463 70.4202 31.2422L70.4491 31.3664V39.8639C70.4824 40.4635 70.9619 40.9969 71.5305 41.0652L71.6528 41.0728H75.5932C76.2062 41.0728 76.7247 40.5789 76.7903 39.9916L76.7981 39.8639L76.8337 16.1083C76.8003 15.5088 76.322 14.9753 75.7535 14.9072L75.6311 14.8994H71.6528C71.041 14.8994 70.5225 15.3933 70.4558 15.9808L70.4491 16.1083V24.266C70.4491 24.6444 70.359 24.8655 70.013 24.9028L69.9017 24.9083H64.9756C64.6151 24.9083 64.4604 24.663 64.4327 24.3672L64.4282 24.266V16.1083C64.3949 15.5088 63.9165 14.9753 63.3479 14.9072L63.2245 14.8994ZM43.4865 15.73C47.3536 15.73 51.4409 17.6186 51.6589 22C51.6923 22.3739 51.5176 22.6863 51.2696 22.7458L51.185 22.7557H49.1414C48.7042 22.7557 48.4116 22.6797 48.3393 22.2639C47.9388 19.8847 46.4781 18.865 43.6323 18.865C40.9078 18.865 39.0755 20.8889 38.9664 23.2166L38.962 23.4355V32.3488C38.962 34.728 40.7865 36.9182 43.6323 36.9182C46.2589 36.9182 47.9377 35.7477 48.3382 33.4817C48.4049 33.1077 48.6474 33.0088 49.0146 32.9933L49.1414 32.99H51.185C51.4765 32.99 51.6968 33.3311 51.6589 33.7458C51.4409 38.1644 47.427 40.2038 43.5599 40.2038C38.9842 40.2038 35.6345 36.5441 35.4999 32.5952L35.4954 32.3488V23.4355C35.4954 19.3941 38.7796 15.73 43.4865 15.73ZM62.8596 16.0325C63.1188 16.0325 63.2924 16.2117 63.3269 16.49L63.3335 16.6V25.1724C63.3335 25.5155 63.5749 25.8907 63.921 25.9555L64.0277 25.9666H70.7773C71.2112 25.9666 71.5238 25.7113 71.5738 25.3208L71.5805 25.2108V16.5616C71.5805 16.2205 71.8163 16.0655 72.1034 16.0369L72.2002 16.0325H74.681C75.284 16.0325 75.61 16.2227 75.6311 16.5747V39.26C75.6311 39.6725 75.4798 39.8969 75.1227 39.9344L75.0103 39.9399H72.1278L72.08 39.92C71.961 39.8683 71.6584 39.7044 71.5927 39.3866L71.5805 39.26V30.3841C71.5805 30.0728 71.2734 29.6977 70.8852 29.6372L70.7773 29.6296H64.0277C63.6628 29.6296 63.3881 29.9727 63.3413 30.2896L63.3335 30.3841V39.2611C63.3335 39.6572 63.0053 39.8408 62.8418 39.908L62.7506 39.941H60.0138C59.4409 39.941 59.2418 39.6825 59.2139 39.3458L59.2106 39.26V16.6375C59.2106 16.3283 59.422 16.0808 59.8447 16.0391L59.9771 16.0325H62.8596ZM28.9617 16.2216C29.2521 16.2216 29.4 16.3405 29.4557 16.6066L29.4713 16.7122V18.6383C29.4713 18.9738 29.3566 19.2213 29.0997 19.2708L28.9973 19.2808H24.3638C24.0323 19.2808 23.6996 19.5932 23.6429 19.933L23.634 20.0364V39.3744C23.634 39.6758 23.4315 39.8288 23.259 39.8585L23.1957 39.8639H20.3143C20.1541 39.8639 20.0217 39.6913 19.9917 39.4702L19.985 39.3733V20.0353C19.985 19.7274 19.6835 19.3555 19.4087 19.2907L19.3286 19.2808H14.6584C14.4981 19.2808 14.3668 19.1652 14.3357 18.9342L14.329 18.8275V16.7122C14.329 16.5428 14.477 16.2811 14.8263 16.2305L14.9487 16.2216H28.9606H28.9617Z" fill="black"/>
</svg>
