<svg width="172" height="37" viewBox="0 0 172 37" fill="none" xmlns="http://www.w3.org/2000/svg">
<g clip-path="url(#clip0_19_1394)">
<path d="M24.4529 6.28979L27.4773 28.2829H22.8253L21.0967 15.7337L16.3022 28.2881H12.136L7.41535 15.7337L5.57139 28.2829H0.666687L3.65356 6.28979H8.37425L14.0902 20.6064L19.806 6.28979H24.4529Z" fill="black"/>
<path d="M51.1561 25.2908C50.366 26.4868 49.2515 27.4242 47.9476 27.9893C46.2758 28.7375 44.4608 29.0975 42.6348 29.0429C41.1299 29.0366 39.6398 28.7407 38.2432 28.171C36.8664 27.6289 35.6025 26.8278 34.5177 25.8097C33.4362 24.7793 32.5599 23.5471 31.9364 22.1803C31.265 20.7138 30.925 19.1132 30.9413 17.4958C30.925 15.8785 31.2651 14.2778 31.9364 12.8114C32.5719 11.4295 33.4602 10.183 34.554 9.13848C35.6392 8.12087 36.903 7.31988 38.2795 6.77721C39.6758 6.21066 41.165 5.91791 42.6685 5.91455C43.6105 5.91567 44.5498 6.01624 45.4713 6.21492C46.2982 6.38165 47.1029 6.64693 47.8686 7.00504C48.5389 7.32918 49.1699 7.73136 49.7489 8.20351C50.2667 8.61387 50.715 9.10765 51.0758 9.66523L49.6011 13.7846C48.8968 12.9625 48.0302 12.3002 47.0574 11.8409C45.8203 11.2194 44.4537 10.9108 43.074 10.9414C42.0854 10.9298 41.1016 11.0819 40.1611 11.3917C39.312 11.6783 38.5238 12.1251 37.8377 12.7087C37.1718 13.2674 36.6374 13.9706 36.2736 14.7666C35.9099 15.5626 35.7262 16.4312 35.7358 17.3088C35.7247 18.188 35.9077 19.0585 36.2714 19.8562C36.6352 20.6539 37.1704 21.3585 37.8377 21.9181C38.5238 22.5017 39.312 22.9485 40.1611 23.2351C41.1016 23.545 42.0854 23.6971 43.074 23.6855C44.4786 23.7285 45.872 23.4196 47.1314 22.786C48.1014 22.3036 48.9569 21.613 49.6388 20.7618L51.1561 25.0288V25.2908Z" fill="black"/>
<path d="M56.3933 23.1914C56.6961 22.8828 57.0578 22.6405 57.4563 22.4793C57.8548 22.3183 58.2815 22.242 58.7103 22.2551C59.139 22.2428 59.5657 22.3195 59.9642 22.4805C60.3628 22.6416 60.7247 22.8837 61.028 23.1919C61.3313 23.5001 61.5695 23.868 61.728 24.2731C61.8864 24.678 61.9619 25.1117 61.9498 25.5474C61.9619 25.9831 61.8864 26.4168 61.728 26.8219C61.5695 27.2269 61.3313 27.5948 61.028 27.9031C60.7247 28.2113 60.3628 28.4534 59.9642 28.6144C59.5657 28.7755 59.139 28.8522 58.7103 28.8399C58.2815 28.852 57.8549 28.7752 57.4564 28.6141C57.0581 28.4528 56.6961 28.2108 56.3928 27.9027C56.0897 27.5944 55.8515 27.2266 55.6928 26.8217C55.5343 26.4167 55.4587 25.9831 55.4706 25.5474C55.4578 25.1115 55.533 24.6775 55.6917 24.2723C55.8504 23.8671 56.0892 23.4992 56.3933 23.1914Z" fill="black"/>
<path d="M77.2564 26.6025C76.7688 27.2801 76.1226 27.8233 75.3761 28.1828C74.4909 28.6166 73.5183 28.8344 72.5357 28.8189C71.6788 28.8901 70.8169 28.7724 70.0089 28.474C69.2009 28.1756 68.4658 27.7034 67.8539 27.0897C66.7475 25.724 66.1918 23.9827 66.2989 22.2169V14.0518H63.0593V12.5111L69.5864 4.11548H71.0248V8.98815H77.036V14.0479H70.9872V21.1687C70.9452 21.5322 70.9867 21.9008 71.1083 22.2453C71.2299 22.5899 71.4284 22.9011 71.6883 23.1546C72.1629 23.5279 72.7481 23.7262 73.3482 23.717C73.9073 23.7329 74.4624 23.6176 74.9706 23.3799C75.4695 23.1092 75.9101 22.7398 76.2663 22.2934L77.2615 26.5656L77.2564 26.6025Z" fill="black"/>
<path d="M90.3509 28.8519C89.021 28.8569 87.704 28.5882 86.4791 28.0617C85.2903 27.5545 84.2029 26.8305 83.2705 25.9256C82.3374 25.0051 81.5854 23.9124 81.0547 22.7057C80.5022 21.4309 80.2255 20.0502 80.2435 18.6573C80.2253 17.2649 80.502 15.8847 81.0547 14.6104C81.5842 13.4026 82.3353 12.3084 83.268 11.3865C84.2007 10.4826 85.288 9.75961 86.4764 9.25304C87.7033 8.73347 89.0192 8.46606 90.3484 8.46606C91.6775 8.46606 92.9934 8.73347 94.2203 9.25304C95.4089 9.75916 96.4963 10.4822 97.4288 11.3865C98.3616 12.3083 99.1128 13.4024 99.642 14.6104C100.196 15.8843 100.475 17.2645 100.458 18.6573V18.6956C100.48 20.0885 100.204 21.4695 99.6472 22.7426C99.1185 23.9396 98.367 25.0213 97.4339 25.9283C96.5019 26.8336 95.4144 27.5575 94.2255 28.0643C92.9996 28.5902 91.6815 28.8581 90.3509 28.8519ZM90.4209 13.599C89.7033 13.5881 88.9903 13.715 88.3191 13.973C87.6932 14.2119 87.1175 14.5694 86.6228 15.0265C86.142 15.4706 85.7641 16.0176 85.5162 16.628C85.2471 17.2829 85.1096 17.9859 85.1119 18.6956V18.7706C85.1106 19.4785 85.2481 20.1796 85.5162 20.8329C85.7633 21.4465 86.1412 21.9967 86.6228 22.4436C87.1172 22.9012 87.6928 23.2589 88.3191 23.4972C88.9902 23.7555 89.7033 23.8824 90.4209 23.8712C91.7964 23.8995 93.13 23.3899 94.1464 22.4476C94.6274 21.9918 95.0156 21.4446 95.2893 20.837C95.5877 20.1921 95.7392 19.4872 95.7325 18.7746C95.7395 18.0501 95.5882 17.3331 95.2893 16.6754C95.0178 16.0553 94.6295 15.4952 94.1464 15.0265C93.6597 14.577 93.0975 14.2201 92.4864 13.973C91.8285 13.7129 91.1268 13.5859 90.4209 13.599Z" fill="black"/>
<path d="M113.21 28.8517C111.945 28.8503 110.691 28.5957 109.522 28.1024C108.362 27.6211 107.309 26.9073 106.425 26.0031C105.527 25.0763 104.815 23.9816 104.326 22.7793C103.796 21.4725 103.532 20.0704 103.549 18.6572L103.585 18.7704C103.569 17.3573 103.833 15.9554 104.362 14.6484C104.851 13.4459 105.564 12.3508 106.462 11.4232C107.338 10.5278 108.377 9.81519 109.522 9.32534C110.666 8.8329 111.895 8.57816 113.137 8.57592C114.38 8.5369 115.615 8.78031 116.754 9.28845C117.599 9.64006 118.3 10.2753 118.742 11.0887V1.07983H123.427V28.3645H118.892V26.3416C118.446 27.1661 117.728 27.8034 116.863 28.1406C115.711 28.6468 114.464 28.8896 113.21 28.8517ZM113.763 13.6738C113.009 13.6565 112.259 13.7835 111.552 14.0478C110.914 14.2842 110.326 14.6418 109.819 15.1015C109.337 15.5485 108.959 16.0991 108.713 16.7134C108.444 17.3662 108.306 18.0668 108.307 18.7744V18.8125C108.306 19.5201 108.444 20.2209 108.713 20.8737C108.959 21.4879 109.337 22.0385 109.819 22.4855C110.326 22.9447 110.914 23.3022 111.552 23.5391C112.259 23.8031 113.009 23.9299 113.763 23.9132C114.853 23.9289 115.93 23.6714 116.898 23.1638C117.695 22.8027 118.338 22.163 118.71 21.3608V16.2248C118.337 15.4226 117.694 14.7829 116.896 14.4219C115.927 13.9151 114.852 13.6582 113.763 13.6738Z" fill="black"/>
<path d="M137.401 28.8557C136.135 28.8546 134.882 28.5999 133.712 28.1064C132.553 27.6247 131.499 26.9108 130.616 26.0071C129.718 25.0789 129.005 23.9828 128.516 22.7793C127.993 21.4907 127.73 20.109 127.74 18.7151C127.729 17.32 127.993 15.9368 128.516 14.6471C129.005 13.445 129.718 12.3502 130.615 11.4232C131.498 10.5189 132.552 9.80504 133.712 9.32392C134.882 8.83037 136.135 8.57574 137.401 8.57462C138.655 8.53683 139.902 8.78002 141.052 9.28704C141.917 9.62374 142.635 10.2613 143.08 11.086V9.0619H147.615V28.3631H143.08V26.339C142.635 27.1638 141.916 27.8015 141.052 28.1392C139.902 28.6471 138.655 28.8917 137.401 28.8557ZM137.919 13.6765C137.166 13.6593 136.415 13.7867 135.708 14.0519C135.071 14.2882 134.481 14.6458 133.975 15.1054C133.493 15.5525 133.115 16.1031 132.868 16.7173C132.599 17.3701 132.461 18.0707 132.462 18.7783V18.8152C132.461 19.5233 132.599 20.2244 132.868 20.8776C133.115 21.4916 133.493 22.0422 133.975 22.4895C134.482 22.9486 135.071 23.3061 135.708 23.5431C136.415 23.8072 137.166 23.9341 137.919 23.9171C139.009 23.9325 140.086 23.6747 141.053 23.1664C141.851 22.8001 142.492 22.1552 142.86 21.349V16.2129C142.486 15.4165 141.845 14.7815 141.052 14.4219C140.084 13.9134 139.007 13.6556 137.917 13.6712L137.919 13.6765Z" fill="black"/>
<path d="M156.06 8.98828L161.038 20.9818L166.015 8.98828H171.222L159.858 36.2729H154.731L158.603 27.0898L151.007 8.98828H156.06Z" fill="black"/>
</g>
<defs>
<clipPath id="clip0_19_1394">
<rect width="171" height="37" fill="white" transform="translate(0.666687)"/>
</clipPath>
</defs>
</svg>
