<svg width="97" height="35" viewBox="0 0 97 35" fill="none" xmlns="http://www.w3.org/2000/svg">
<g clip-path="url(#clip0_19_1446)">
<path d="M0.166626 1.05695H0.828695C2.58318 1.05695 8.45904 0.917714 10.6439 0.917714C23.9134 0.917714 29.2696 8.38152 29.2696 17.0062C29.2696 26.0955 22.9186 33.6046 10.2631 33.6046C8.50869 33.6046 4.14898 33.5124 0.97435 33.5124H0.166626V1.05695ZM7.75063 8.01238V26.5586C8.74704 26.6525 9.40909 26.6525 10.4982 26.6525C17.0411 26.6525 21.2121 23.1748 21.2121 17.0062C21.2121 11.0238 16.7101 7.87152 10.5479 7.87152C9.74182 7.87152 8.69904 7.87152 7.75063 8.01076V8.01238ZM48.6251 0.5C58.7216 0.5 66.256 6.94381 66.256 17.2846C66.256 27.1155 58.7183 34.071 48.6235 34.071C38.5269 34.071 30.9909 27.6271 30.9909 17.2846C30.9926 7.87152 38.0535 0.5 48.6251 0.5ZM48.6251 27.1139C54.9314 27.1139 58.1987 22.7554 58.1987 17.283C58.1987 11.3476 53.9812 7.45219 48.6268 7.45219C43.1282 7.45219 39.0516 11.3476 39.0516 17.283C39.0516 22.8494 43.3187 27.1139 48.6268 27.1139H48.6251ZM96.1666 20.1131C96.1666 30.0346 89.7198 34.0694 82.6108 34.0694C74.08 34.0694 68.1561 29.2931 68.1561 19.7894V1.05695H75.7401V18.2124C75.7401 23.267 77.301 27.1171 82.6091 27.1171C87.2072 27.1171 88.581 23.824 88.581 18.6301V1.05695H96.1666V20.1131Z" fill="black"/>
</g>
<defs>
<clipPath id="clip0_19_1446">
<rect width="96" height="34" fill="white" transform="translate(0.166626 0.5)"/>
</clipPath>
</defs>
</svg>
