<svg width="252" height="25" viewBox="0 0 252 25" fill="none" xmlns="http://www.w3.org/2000/svg">
<g clip-path="url(#clip0_19_1390)">
<path d="M-2.38486 1.06188L-1.39488 1.25785C0.94147 1.68899 1.21866 3.06078 1.21866 4.315V20.267C1.21866 21.5604 0.901871 22.8538 -1.39488 23.3242L-2.38486 23.5201V24.0297H9.09889V23.5201L8.10891 23.3242C5.81216 22.8538 5.49537 21.5604 5.49537 20.267V4.315C5.49537 3.06078 5.81216 1.68899 8.10891 1.25785L9.09889 1.06188V0.552356H-2.38486V1.06188ZM230.973 0.552356V8.43039H231.448L232.636 5.53002C233.824 2.62965 235.012 1.06188 238.101 1.06188H239.368V20.267C239.368 21.5212 239.091 23.0106 236.754 23.3634L235.764 23.5201V24.0297H247.248V23.5201L246.219 23.3634C243.922 22.9714 243.605 21.5212 243.605 20.2278V1.10107H244.872C247.961 1.10107 249.188 2.66884 250.337 5.56921L251.525 8.46958H252V0.552356H230.973ZM220.717 1.06188L221.667 1.17946C223.409 1.41463 225.033 2.2769 225.073 6.74504L225.152 17.445L215.965 6.66665C213.193 3.45273 212.084 2.08093 211.292 0.630745L211.213 0.552356H202.818V1.06188H202.976C204.719 1.37543 205.788 2.08093 207.609 4.04064L207.966 4.43258V16.7396C207.966 21.9916 206.303 22.8538 204.283 23.3634L203.57 23.5201V24.0297H212.995V23.5201L212.322 23.3634C210.54 22.893 208.679 22.3835 208.639 16.7004L208.52 5.02049L225.152 24.4608L225.231 24.5H225.746V6.74504C225.746 2.2769 227.449 1.41463 229.151 1.17946L230.062 1.06188V0.552356H220.717V1.06188ZM124.293 19.7967C122.709 22.5011 120.768 23.4809 117.165 23.4809H116.135C114.155 23.4809 113.245 22.5011 113.245 20.3454V12.193L114.71 12.2322C118.313 12.3106 119.303 12.4674 120.452 15.9165L120.848 17.1707H121.362V6.62745H120.848L120.452 7.92086C119.343 11.37 118.274 11.5267 114.71 11.6051H113.245V1.10107H115.779C120.056 1.10107 121.956 2.00254 123.382 4.58936L125.006 7.48973H125.481V0.552356H105.404V1.06188L106.394 1.25785C108.572 1.64979 109.008 2.70804 109.008 4.23661V20.267C109.008 21.5212 108.691 23.0106 106.394 23.3634L105.404 23.5201V24.0297H126.392V17.0923H125.916L124.293 19.8359V19.7967ZM199.373 19.8359C197.789 22.5011 195.848 23.4809 192.245 23.4809H191.255C189.235 23.4809 188.325 22.5011 188.325 20.3454V12.193L189.79 12.2322C193.433 12.3106 194.423 12.4674 195.532 15.9165L195.928 17.1707H196.442V6.62745H195.888L195.492 7.92086C194.383 11.37 193.314 11.5267 189.75 11.6051H188.364V1.10107H190.938C195.175 1.10107 197.076 2.00254 198.541 4.58936L200.125 7.48973H200.6V0.552356H180.524V1.06188L181.514 1.25785C183.691 1.64979 184.127 2.70804 184.127 4.23661V20.267C184.127 21.5212 183.85 23.0106 181.514 23.3634L180.524 23.5201V24.0297H201.511V17.0923H201.036L199.452 19.8359H199.373ZM44.4609 20.2278V1.06188H47.4705C53.4895 1.06188 57.0534 5.25566 57.0534 12.2714C57.0534 19.4048 53.6875 23.4809 47.7872 23.4809H46.9953C44.8569 23.4809 44.4213 22.1875 44.4213 20.2278H44.4609ZM48.4604 0.552356H27.2749V1.06188L28.2253 1.17946C30.3636 1.49302 31.5912 2.35529 31.6308 6.07874L31.71 17.445L22.523 6.66665C19.8303 3.57031 18.6423 2.08093 17.8503 0.630745L17.7711 0.552356H9.37609V1.06188H9.53448C11.2372 1.37543 12.3064 2.08093 14.1676 4.04064L14.524 4.43258V16.7396C14.524 21.9916 12.8212 22.8538 10.8017 23.3634L10.1285 23.5201V24.0297H19.5531V23.5201L18.8799 23.3634C17.0979 22.893 15.2368 22.3835 15.1972 16.7004L15.0784 5.02049L31.7892 24.5H32.304V5.53002C32.304 2.59045 33.6108 1.10107 36.2639 1.10107C38.8378 1.10107 40.1842 2.59045 40.1842 5.53002V20.267C40.1842 21.6388 39.8674 22.9714 37.5311 23.3634L36.5807 23.5201V24.0297H48.4604C52.5391 24.0297 55.9843 22.7755 58.3602 20.3846C59.4451 19.3025 60.3015 18.0174 60.8794 16.6042C61.4573 15.1911 61.7451 13.6782 61.7261 12.1538C61.7261 9.0183 60.5382 6.11793 58.3602 4.04064C55.657 1.62255 52.1005 0.3553 48.4604 0.513162V0.552356ZM162.744 20.2278V1.06188H165.753C171.772 1.06188 175.336 5.25566 175.336 12.2714C175.336 19.4048 171.97 23.4809 166.07 23.4809H165.317C163.179 23.4809 162.744 22.1875 162.744 20.2278ZM166.783 0.552356H145.597V1.06188L146.548 1.17946C148.686 1.49302 149.913 2.35529 149.953 6.07874L150.032 17.445L140.845 6.66665C138.073 3.45273 136.965 2.08093 136.173 0.630745L136.093 0.552356H127.698V1.06188H127.857C129.599 1.37543 130.668 2.08093 132.49 4.04064L132.846 4.43258V16.7396C132.846 21.9916 131.143 22.8538 129.124 23.3634L128.451 23.5201V24.0297H137.875V23.5201L137.202 23.3634C135.42 22.893 133.559 22.3835 133.519 16.7004L133.44 5.02049L150.072 24.4608L150.111 24.5H150.626V5.53002C150.626 2.59045 151.933 1.10107 154.586 1.10107C157.16 1.10107 158.546 2.59045 158.546 5.53002V20.267C158.546 21.6388 158.19 22.9714 155.853 23.3634L154.903 23.5201V24.0297H166.783C170.861 24.0297 174.306 22.7755 176.682 20.3846C177.767 19.3025 178.624 18.0174 179.202 16.6042C179.78 15.1911 180.067 13.6782 180.048 12.1538C180.048 9.0183 178.86 6.11793 176.682 4.04064C173.979 1.62255 170.423 0.3553 166.783 0.513162V0.552356ZM95.7022 0.552356H85.446V1.10107L86.436 1.29705C88.7328 1.72818 89.0495 3.02159 89.0495 4.315V20.3062C89.0495 21.6388 88.7328 22.893 86.436 23.3634L85.446 23.5593V24.0689H97.3258V23.5593L96.5338 23.4026C93.841 22.8538 93.3659 22.3051 93.3659 19.9927V1.10107H94.3558C97.999 1.10107 100.177 3.53111 100.177 7.60731C100.177 11.7227 97.999 14.1527 94.3558 14.1527H94.0786V14.7406H95.7022C101.048 14.7406 104.81 11.8011 104.81 7.60731C104.81 3.45273 101.048 0.552356 95.7022 0.552356ZM81.0505 19.7967C79.4666 22.4619 77.5262 23.4809 73.9227 23.4809H72.8931C70.9131 23.4809 70.0024 22.5011 70.0024 20.3454V12.193L71.4675 12.2322C75.0711 12.3106 76.061 12.4674 77.2094 15.9165L77.6054 17.1707H78.0806V6.62745H77.6054L77.2094 7.92086C76.1006 11.37 75.0315 11.5267 71.4675 11.6051H70.0024V1.10107H72.5367C76.7738 1.10107 78.7142 2.00254 80.1397 4.58936L81.7633 7.48973H82.2385V0.552356H62.1617V1.06188L63.1517 1.25785C65.3297 1.64979 65.7653 2.70804 65.7653 4.23661V20.267C65.7653 21.5212 65.4485 23.0106 63.1517 23.3634L62.1617 23.5201V24.0297H83.1493V17.0923H82.6345L81.0109 19.8359" fill="black"/>
</g>
<defs>
<clipPath id="clip0_19_1390">
<rect width="252" height="24" fill="white" transform="translate(0 0.5)"/>
</clipPath>
</defs>
</svg>
