<svg width="83" height="33" viewBox="0 0 83 33" fill="none" xmlns="http://www.w3.org/2000/svg">
<g clip-path="url(#clip0_19_1392)">
<path d="M69.4904 10.42C66.0211 8.66 64.05 10.9 63.2615 12.18C61.2115 16.1 58.4519 20.5 58.4519 20.5H58.3731C58.3731 20.5 55.4558 14.02 54.7462 12.74C53.4846 10.58 51.5923 10.42 50.1731 10.74C47.5712 11.38 47.0192 14.02 46.9404 14.5C45.2058 18.1 40.5538 24.18 35.9808 24.18V24.1C37.6365 22.9 40.7115 19.62 40.7115 15.7C40.7115 11.86 38.1096 9.38 34.4038 9.38C27.5442 9.38 26.3615 17.78 26.3615 19.38C22.9712 22.82 18.1615 24.82 13.9827 24.82C11.4596 24.82 10.1192 23.38 10.1192 21.78C10.1192 18.98 13.0365 18.34 14.6923 18.9C15.1654 19.22 16.7423 20.34 18.7135 20.34C20.6846 20.34 22.9712 18.9 22.9712 16.58C22.9712 16.58 23.05 5.62 23.05 4.18C23.05 2.1 21 0.5 18.4769 0.5C16.0327 0.5 14.1404 2.1 14.1404 4.26L14.2981 12.1C10.4346 10.98 0.5 12.02 0.5 21.06C0.5 28.98 7.99038 32.5 14.7712 32.5C21.9462 32.5 28.2538 29.3 29.4365 28.66C30.225 29.62 32.9058 31.94 37.2423 31.94C44.4962 31.94 50.0942 25.3 51.3558 23.62H51.4346C51.4346 23.62 53.8788 28.1 54.4308 29.06C55.4558 30.82 57.0327 31.78 58.6885 31.78C60.4231 31.78 62.0788 30.9 63.025 29.46C63.025 29.46 69.175 20.18 71.1461 16.34C72.4865 14.1 71.7769 11.54 69.4904 10.42ZM76.5077 19.62C73.1962 19.62 70.5942 22.26 70.5942 25.62C70.5942 28.9 73.1962 31.54 76.5077 31.54C79.8192 31.54 82.4212 28.9 82.4212 25.62C82.4212 22.26 79.8192 19.62 76.5077 19.62Z" fill="black"/>
</g>
<defs>
<clipPath id="clip0_19_1392">
<rect width="82" height="32" fill="white" transform="translate(0.5 0.5)"/>
</clipPath>
</defs>
</svg>
