<svg width="229" height="49" viewBox="0 0 229 49" fill="none" xmlns="http://www.w3.org/2000/svg">
<g clip-path="url(#clip0_19_1403)">
<path d="M5.03068 44.4083C3.2179 42.6363 2.27452 40.372 1.79352 37.1687C1.3084 33.9379 1.30637 29.8546 1.30637 24.4956C1.30637 19.1364 1.3084 15.0531 1.79351 11.8235C2.27452 8.62118 3.21782 6.35965 5.03001 4.5923L5.03135 4.591C6.83954 2.81949 9.15104 1.89749 12.4258 1.42736C15.7287 0.953184 19.9059 0.951195 25.393 0.951195C30.8801 0.951195 35.0576 0.953167 38.3617 1.4263C41.6376 1.89536 43.9517 2.81527 45.7645 4.58282C47.5774 6.35491 48.5206 8.61705 49.0016 11.8191C49.4868 15.0488 49.4888 19.1319 49.4888 24.4956C49.4888 29.859 49.4868 33.9423 49.0016 37.172C48.5206 40.374 47.5774 42.6362 45.7645 44.4083C43.9517 46.1802 41.6353 47.1024 38.3581 47.5725C35.0529 48.0468 30.8756 48.0488 25.393 48.0488C19.9105 48.0488 15.7331 48.0468 12.4291 47.5725C9.15304 47.1024 6.83941 46.1804 5.03135 44.4088L5.03068 44.4083ZM4.42854 45.0009C6.41234 46.9435 8.92524 47.9139 12.305 48.3989C15.6843 48.884 19.9333 48.884 25.3897 48.884H25.3964C30.8528 48.884 35.1017 48.884 38.4822 48.399C41.8643 47.9137 44.38 46.9428 46.3686 44.9988C48.3572 43.0549 49.3505 40.5981 49.847 37.2933C50.3433 33.9901 50.3433 29.8369 50.3433 24.499V24.4921C50.3433 19.1542 50.3433 15.001 49.847 11.6978C49.3505 8.39299 48.3572 5.93608 46.3686 3.99222L46.3679 3.99149C44.3794 2.05253 41.8661 1.08395 38.4856 0.599895C35.106 0.115967 30.8568 0.115967 25.3953 0.115967H25.391C19.9294 0.115967 15.6802 0.115967 12.3016 0.600996C8.92179 1.08622 6.41059 2.05719 4.4265 4.00104C4.42639 4.00115 4.42626 4.00128 4.42613 4.00139C2.43773 5.94079 1.44448 8.39757 0.948108 11.7022C0.451904 15.0056 0.451904 19.1592 0.451904 24.4934V24.4977C0.451904 29.8318 0.451904 33.9853 0.948111 37.2901C1.4445 40.5959 2.43783 43.0551 4.42649 44.9989L4.42818 45.0005L4.42854 45.0009Z" fill="black"/>
<path d="M24.3116 40.2291C22.5212 38.8949 21.2007 36.9041 20.7755 34.5852H15.0016V10.1938C18.1123 11.7033 20.3279 15.0502 20.5965 18.5065L21.4693 25.3537L21.0441 25.288C20.1042 25.288 19.2984 26.1412 19.2984 26.9944C19.2984 27.7819 19.925 28.4599 20.7308 28.6351L21.7826 28.8758C23.5282 25.66 24.5129 22.5099 24.5129 19.4034C24.5129 16.6035 24.1324 13.8252 24.0877 10.9814C24.0877 9.71259 24.58 8.55319 25.3858 7.65625C26.1914 8.57503 26.6837 9.71259 26.6837 10.9814C26.6837 13.8252 26.2585 16.6253 26.2585 19.4034C26.2585 22.4879 27.2432 25.66 28.9889 28.8758L30.0408 28.6351C30.8464 28.4599 31.473 27.7819 31.473 26.9944C31.473 26.1412 30.6674 25.288 29.7273 25.288L29.3021 25.3537L30.1749 18.5065C30.6001 15.0502 32.6591 11.7033 35.7698 10.1938V34.5852H29.9959C29.5707 36.8822 28.3174 38.9604 26.46 40.2291C26.0347 40.5354 25.6544 40.9073 25.4081 41.3886C25.1172 40.8855 24.7368 40.5354 24.3116 40.2291ZM17.7319 26.1631C17.9781 25.2443 18.6718 24.4568 19.5223 23.9755L18.8285 18.3316C18.5822 16.5815 17.8438 15.0065 16.7249 13.7158V26.1412H17.7319V26.1631ZM20.6636 32.879C20.6636 32.0258 20.7979 31.2383 20.977 30.4507L20.1712 30.2757C18.9852 29.9039 18.0676 29.0069 17.7542 27.8475H16.7696V32.879H20.6636ZM24.4906 32.879C24.4906 31.8508 23.6848 30.9319 22.633 30.8227C22.454 31.4789 22.3198 32.1571 22.3198 32.879H24.4906ZM24.4906 34.5852H22.5659C22.8792 35.9196 23.5505 37.1229 24.4906 38.1729V34.5852ZM27.2209 29.3133C26.4823 27.9789 25.7885 26.5787 25.3634 25.1349C24.9382 26.6006 24.2443 27.9789 23.5058 29.3133C24.2443 29.4883 24.871 29.9695 25.3634 30.5164C25.8557 29.9695 26.4823 29.4883 27.2209 29.3133ZM28.407 32.879C28.407 32.1571 28.2727 31.4789 28.0937 30.8227C27.0417 30.9539 26.2361 31.8508 26.2361 32.879H28.407ZM28.1608 34.5852H26.2361V38.1729C27.1762 37.1229 27.8475 35.9196 28.1608 34.5852ZM34.0019 32.879V27.8475H33.0171C32.7038 29.0069 31.7863 29.9039 30.6001 30.2757L29.7945 30.4507C29.9735 31.2383 30.1078 32.0258 30.1078 32.879H34.0019ZM34.0019 26.1631V13.7377C32.8829 15.0065 32.0772 16.5815 31.8982 18.3534L31.2044 23.9975C32.0772 24.4787 32.7486 25.2662 32.9948 26.1849H34.0019V26.1631Z" fill="black"/>
<path d="M73.1269 3.60303H70.581L68.1704 9.94553L65.7822 3.60303H63.1913V11.9716H64.881V5.67315L67.2692 11.9716H69.0716L71.4372 5.73922V11.9716H73.1269V3.60303Z" fill="black"/>
<path d="M75.3574 4.48391H77.1148V3.07446H75.3574V4.48391ZM75.4251 11.9716H77.0473V5.36482H75.4251V11.9716Z" fill="black"/>
<path d="M83.6709 5.36475V7.87531H80.7421V5.36475H79.1199V11.9715H80.7421V9.32881H83.6709V11.9715H85.2931V5.36475H83.6709Z" fill="black"/>
<path d="M87.2758 4.48391H89.0331V3.07446H87.2758V4.48391ZM87.3434 11.9716H88.9655V5.36482H87.3434V11.9716Z" fill="black"/>
<path d="M94.0122 12.0816C95.5217 12.0816 96.7158 11.3549 97.0762 10.0996L95.5668 9.63715C95.3189 10.3419 94.7556 10.7603 93.9896 10.7603C92.9083 10.7603 92.2324 9.94546 92.2324 8.66814C92.2324 7.39084 92.9083 6.576 93.9896 6.576C94.7556 6.576 95.2964 6.99443 95.5442 7.69915L97.0762 7.23667C96.7158 5.9814 95.5217 5.25464 94.0122 5.25464C91.962 5.25464 90.5652 6.62004 90.5652 8.66814C90.5652 10.7162 91.962 12.0816 94.0122 12.0816Z" fill="black"/>
<path d="M103.858 5.36475H97.4818V6.79621H99.8699V11.9715H101.492V6.79621H103.858V5.36475Z" fill="black"/>
<path d="M105.863 9.17467H110.91C110.955 8.93242 110.955 8.82231 110.955 8.66814C110.955 6.59802 109.648 5.25464 107.643 5.25464C105.592 5.25464 104.241 6.64206 104.241 8.66814C104.241 10.6282 105.435 12.0816 107.755 12.0816C109.107 12.0816 110.053 11.5971 110.684 10.9144L109.67 9.96748C109.265 10.43 108.634 10.7603 107.755 10.7603C106.696 10.7603 106.021 10.1657 105.863 9.17467ZM107.643 6.53195C108.521 6.53195 109.13 7.0605 109.31 8.00746H105.885C106.066 7.08252 106.696 6.53195 107.643 6.53195Z" fill="black"/>
<path d="M116.182 5.25464C115.235 5.25464 114.447 5.65105 113.929 6.35577L113.838 5.36476H112.396V14.1738H114.019V11.1347C114.537 11.7513 115.28 12.0816 116.182 12.0816C117.894 12.0816 119.088 10.7162 119.088 8.66814C119.088 6.59802 117.939 5.25464 116.182 5.25464ZM115.686 10.7603C114.604 10.7603 113.951 9.94546 113.951 8.66814C113.951 7.39084 114.604 6.576 115.686 6.576C116.767 6.576 117.443 7.39084 117.443 8.66814C117.443 9.94546 116.767 10.7603 115.686 10.7603Z" fill="black"/>
<path d="M123.526 12.0816C125.036 12.0816 126.23 11.3549 126.59 10.0996L125.081 9.63715C124.833 10.3419 124.27 10.7603 123.504 10.7603C122.422 10.7603 121.746 9.94546 121.746 8.66814C121.746 7.39084 122.422 6.576 123.504 6.576C124.27 6.576 124.81 6.99443 125.058 7.69915L126.59 7.23667C126.23 5.9814 125.036 5.25464 123.526 5.25464C121.476 5.25464 120.079 6.62004 120.079 8.66814C120.079 10.7162 121.476 12.0816 123.526 12.0816Z" fill="black"/>
<path d="M133.372 5.36475H126.996V6.79621H129.384V11.9715H131.006V6.79621H133.372V5.36475Z" fill="black"/>
<path d="M139.207 8.58004C139.793 8.33779 140.176 7.83127 140.176 7.10453C140.176 5.9153 139.23 5.36475 137.653 5.36475H134.566V11.9715H137.9C139.432 11.9715 140.356 11.3329 140.356 10.1657C140.356 9.37285 139.951 8.8223 139.207 8.58004ZM136.098 6.55396H137.698C138.283 6.55396 138.599 6.81824 138.599 7.2807C138.599 7.80925 138.306 8.02947 137.653 8.02947H136.098V6.55396ZM137.743 10.7603H136.098V9.15263H137.698C138.351 9.15263 138.734 9.46094 138.734 9.96746C138.734 10.452 138.374 10.7603 137.743 10.7603Z" fill="black"/>
<path d="M144.816 12.0816C146.89 12.0816 148.31 10.7162 148.31 8.66814C148.31 6.59802 146.935 5.25464 144.816 5.25464C142.744 5.25464 141.325 6.62004 141.325 8.66814C141.325 10.7383 142.699 12.0816 144.816 12.0816ZM144.816 10.7603C143.69 10.7603 142.992 9.96748 142.992 8.66814C142.992 7.36881 143.69 6.576 144.816 6.576C145.943 6.576 146.642 7.36881 146.642 8.66814C146.642 9.96748 145.943 10.7603 144.816 10.7603Z" fill="black"/>
<path d="M69.0717 27.523V22.3477H67.4495V27.523H64.5881V22.3477H62.9661V28.9544H68.4183V30.496H69.9728V27.523H69.0717Z" fill="black"/>
<path d="M75.8981 22.3477L72.9243 26.7081V22.3477H71.3246V28.9544H72.9468L75.9433 24.594V28.9544H77.5203V22.3477H75.8981Z" fill="black"/>
<path d="M87.0053 22.2596C86.2619 22.2596 85.631 22.524 85.1804 23.0745V20.1455H83.5582V23.0525C83.1076 22.524 82.4994 22.2596 81.7109 22.2596C80.0887 22.2596 79.0072 23.6251 79.0072 25.6512C79.0072 27.7213 80.0662 29.0426 81.7109 29.0426C82.4769 29.0426 83.1076 28.7563 83.5582 28.2057V31.1567H85.1804V28.2499C85.631 28.7783 86.2394 29.0426 87.0053 29.0426C88.6275 29.0426 89.709 27.6772 89.709 25.6512C89.709 23.5809 88.65 22.2596 87.0053 22.2596ZM82.139 27.7433C81.2376 27.7433 80.6519 26.9284 80.6519 25.6512C80.6519 24.3738 81.2376 23.5589 82.139 23.5589C83.0626 23.5589 83.6259 24.3738 83.6259 25.6512C83.6259 26.9284 83.0626 27.7433 82.139 27.7433ZM86.5998 27.7433C85.6535 27.7433 85.0903 26.9284 85.0903 25.6512C85.0903 24.3738 85.6535 23.5589 86.5998 23.5589C87.501 23.5589 88.0643 24.3738 88.0643 25.6512C88.0643 26.9284 87.501 27.7433 86.5998 27.7433Z" fill="black"/>
<path d="M94.9583 22.2375C94.0122 22.2375 93.2236 22.634 92.7054 23.3387L92.6153 22.3477H91.1733V31.1567H92.7955V28.1175C93.3136 28.7342 94.0572 29.0646 94.9583 29.0646C96.6707 29.0646 97.8647 27.6991 97.8647 25.6511C97.8647 23.5809 96.7157 22.2375 94.9583 22.2375ZM94.4628 27.7432C93.3813 27.7432 92.7279 26.9283 92.7279 25.6511C92.7279 24.3738 93.3813 23.5589 94.4628 23.5589C95.5441 23.5589 96.2201 24.3738 96.2201 25.6511C96.2201 26.9283 95.5441 27.7432 94.4628 27.7432Z" fill="black"/>
<path d="M102.348 29.0646C104.421 29.0646 105.84 27.6991 105.84 25.6511C105.84 23.5809 104.466 22.2375 102.348 22.2375C100.275 22.2375 98.8561 23.603 98.8561 25.6511C98.8561 27.7212 100.23 29.0646 102.348 29.0646ZM102.348 27.7432C101.222 27.7432 100.523 26.9505 100.523 25.6511C100.523 24.3518 101.222 23.5589 102.348 23.5589C103.475 23.5589 104.173 24.3518 104.173 25.6511C104.173 26.9505 103.475 27.7432 102.348 27.7432Z" fill="black"/>
<path d="M111.946 25.563C112.532 25.3206 112.915 24.8142 112.915 24.0874C112.915 22.8982 111.968 22.3477 110.391 22.3477H107.305V28.9544H110.639C112.171 28.9544 113.095 28.3158 113.095 27.1485C113.095 26.3558 112.689 25.8052 111.946 25.563ZM108.837 23.5369H110.436C111.022 23.5369 111.338 23.8011 111.338 24.2637C111.338 24.7922 111.045 25.0124 110.391 25.0124H108.837V23.5369ZM110.481 27.7432H108.837V26.1356H110.436C111.09 26.1356 111.473 26.4439 111.473 26.9505C111.473 27.4349 111.112 27.7432 110.481 27.7432Z" fill="black"/>
<path d="M117.556 29.0646C119.629 29.0646 121.048 27.6991 121.048 25.6511C121.048 23.5809 119.674 22.2375 117.556 22.2375C115.483 22.2375 114.064 23.603 114.064 25.6511C114.064 27.7212 115.438 29.0646 117.556 29.0646ZM117.556 27.7432C116.429 27.7432 115.731 26.9505 115.731 25.6511C115.731 24.3518 116.429 23.5589 117.556 23.5589C118.682 23.5589 119.381 24.3518 119.381 25.6511C119.381 26.9505 118.682 27.7432 117.556 27.7432Z" fill="black"/>
<path d="M121.341 21.4668H123.031V20.0574H121.341V21.4668ZM123.842 21.4668H125.531V20.0574H123.842V21.4668ZM122.625 28.9545H124.247V22.3477H122.625V28.9545Z" fill="black"/>
<path d="M135.557 22.3477H129.181V23.7791H131.569V28.9544H133.192V23.7791H135.557V22.3477Z" fill="black"/>
<path d="M140.536 22.2375C139.59 22.2375 138.801 22.634 138.283 23.3387L138.193 22.3477H136.751V31.1567H138.373V28.1175C138.892 28.7342 139.635 29.0646 140.536 29.0646C142.249 29.0646 143.442 27.6991 143.442 25.6511C143.442 23.5809 142.294 22.2375 140.536 22.2375ZM140.041 27.7432C138.959 27.7432 138.306 26.9283 138.306 25.6511C138.306 24.3738 138.959 23.5589 140.041 23.5589C141.122 23.5589 141.798 24.3738 141.798 25.6511C141.798 26.9283 141.122 27.7432 140.041 27.7432Z" fill="black"/>
<path d="M150.494 27.589C150.224 27.589 150.088 27.4569 150.088 27.1927V24.4398C150.088 23.0744 149.076 22.2375 147.363 22.2375C146.169 22.2375 145.178 22.634 144.389 23.3606L145.357 24.3518C145.876 23.8232 146.552 23.5369 147.273 23.5369C148.083 23.5369 148.579 23.8452 148.579 24.3077C148.579 24.7481 148.016 24.8582 147.138 24.9683C145.853 25.1226 144.231 25.4529 144.231 27.1265C144.231 28.2938 145.132 29.0646 146.44 29.0646C147.431 29.0646 148.31 28.6461 148.805 27.9854C148.918 28.6902 149.345 28.9984 150.179 28.9984C150.471 28.9984 150.652 28.9764 150.765 28.9544V27.589H150.494ZM146.777 27.8092C146.169 27.8092 145.809 27.501 145.809 26.9944C145.809 26.2677 146.552 26.1575 147.318 26.0254C147.881 25.9373 148.264 25.8713 148.535 25.7171V26.3998C148.535 27.1707 147.746 27.8092 146.777 27.8092Z" fill="black"/>
<path d="M156.713 22.3477V24.8582H153.784V22.3477H152.162V28.9544H153.784V26.3118H156.713V28.9544H158.335V22.3477H156.713Z" fill="black"/>
<path d="M163.246 29.0646C164.755 29.0646 165.95 28.3378 166.31 27.0826L164.801 26.62C164.553 27.3248 163.991 27.7432 163.224 27.7432C162.142 27.7432 161.467 26.9283 161.467 25.6511C161.467 24.3738 162.142 23.5589 163.224 23.5589C163.991 23.5589 164.53 23.9773 164.778 24.6821L166.31 24.2195C165.95 22.9643 164.755 22.2375 163.246 22.2375C161.196 22.2375 159.799 23.603 159.799 25.6511C159.799 27.6991 161.196 29.0646 163.246 29.0646Z" fill="black"/>
<path d="M175.007 22.2596C174.264 22.2596 173.633 22.524 173.182 23.0745V20.1455H171.56V23.0525C171.11 22.524 170.502 22.2596 169.713 22.2596C168.091 22.2596 167.008 23.6251 167.008 25.6512C167.008 27.7213 168.068 29.0426 169.713 29.0426C170.479 29.0426 171.11 28.7563 171.56 28.2057V31.1567H173.182V28.2499C173.633 28.7783 174.241 29.0426 175.007 29.0426C176.629 29.0426 177.71 27.6772 177.71 25.6512C177.71 23.5809 176.652 22.2596 175.007 22.2596ZM170.141 27.7433C169.24 27.7433 168.653 26.9284 168.653 25.6512C168.653 24.3738 169.24 23.5589 170.141 23.5589C171.064 23.5589 171.628 24.3738 171.628 25.6512C171.628 26.9284 171.064 27.7433 170.141 27.7433ZM174.602 27.7433C173.654 27.7433 173.092 26.9284 173.092 25.6512C173.092 24.3738 173.654 23.5589 174.602 23.5589C175.503 23.5589 176.066 24.3738 176.066 25.6512C176.066 26.9284 175.503 27.7433 174.602 27.7433Z" fill="black"/>
<path d="M182.194 29.0646C184.267 29.0646 185.687 27.6991 185.687 25.6511C185.687 23.5809 184.311 22.2375 182.194 22.2375C180.121 22.2375 178.702 23.603 178.702 25.6511C178.702 27.7212 180.076 29.0646 182.194 29.0646ZM182.194 27.7432C181.067 27.7432 180.369 26.9505 180.369 25.6511C180.369 24.3518 181.067 23.5589 182.194 23.5589C183.32 23.5589 184.019 24.3518 184.019 25.6511C184.019 26.9505 183.32 27.7432 182.194 27.7432Z" fill="black"/>
<path d="M190.936 22.2375C189.989 22.2375 189.2 22.634 188.683 23.3387L188.592 22.3477H187.151V31.1567H188.773V28.1175C189.291 28.7342 190.035 29.0646 190.936 29.0646C192.648 29.0646 193.841 27.6991 193.841 25.6511C193.841 23.5809 192.694 22.2375 190.936 22.2375ZM190.441 27.7432C189.358 27.7432 188.705 26.9283 188.705 25.6511C188.705 24.3738 189.358 23.5589 190.441 23.5589C191.521 23.5589 192.198 24.3738 192.198 25.6511C192.198 26.9283 191.521 27.7432 190.441 27.7432Z" fill="black"/>
<path d="M203.665 22.3477H201.277L199.519 27.1485L197.739 22.3477H195.307V28.9544H196.883V24.1094L198.686 28.9544H200.308L202.111 24.1094V28.9544H203.665V22.3477Z" fill="black"/>
<path d="M211.348 27.589C211.077 27.589 210.942 27.4569 210.942 27.1927V24.4398C210.942 23.0744 209.928 22.2375 208.216 22.2375C207.022 22.2375 206.03 22.634 205.243 23.3606L206.211 24.3518C206.73 23.8232 207.405 23.5369 208.127 23.5369C208.937 23.5369 209.433 23.8452 209.433 24.3077C209.433 24.7481 208.87 24.8582 207.991 24.9683C206.707 25.1226 205.085 25.4529 205.085 27.1265C205.085 28.2938 205.986 29.0646 207.292 29.0646C208.283 29.0646 209.162 28.6461 209.658 27.9854C209.77 28.6902 210.199 28.9984 211.032 28.9984C211.325 28.9984 211.506 28.9764 211.619 28.9544V27.589H211.348ZM207.63 27.8092C207.022 27.8092 206.661 27.501 206.661 26.9944C206.661 26.2677 207.405 26.1575 208.171 26.0254C208.735 25.9373 209.118 25.8713 209.387 25.7171V26.3998C209.387 27.1707 208.599 27.8092 207.63 27.8092Z" fill="black"/>
<path d="M219.121 27.523V22.3477H217.499V27.523H214.638V22.3477H213.016V28.9544H218.467V30.496H220.022V27.523H219.121Z" fill="black"/>
<path d="M221.419 21.4668H223.177V20.0574H221.419V21.4668ZM221.486 28.9545H223.108V22.3477H221.486V28.9545Z" fill="black"/>
<path d="M224.01 21.4668H225.699V20.0574H224.01V21.4668ZM226.51 21.4668H228.199V20.0574H226.51V21.4668ZM225.294 28.9545H226.916V22.3477H225.294V28.9545Z" fill="black"/>
<path d="M68.4858 37.5688L66.9312 42.1495H66.368L64.0249 37.5688H62.1099L64.6107 42.1495H63.7321C63.2363 42.59 62.9435 43.2066 62.9435 43.9113C62.9435 45.1886 63.8672 46.0475 65.219 46.0475C66.5032 46.0475 67.4044 45.3207 67.9677 43.8012L70.3108 37.5688H68.4858ZM65.264 44.7042C64.7684 44.7042 64.4755 44.3959 64.4755 43.8893C64.4755 43.6911 64.5431 43.515 64.6557 43.3607H66.5258L66.3455 43.8232C66.1202 44.3959 65.7822 44.7042 65.264 44.7042Z" fill="black"/>
<path d="M77.34 44.55C77.1372 44.55 77.0021 44.4179 77.0021 44.2196V41.8632H75.8081L77.5428 39.3306H75.8306L74.1859 41.8412H73.1269V37.1284H71.5049V45.9374H73.1269V43.2948H75.4475V44.5941C75.4475 45.497 75.9658 45.9594 76.9119 45.9594C77.1824 45.9594 77.3627 45.9594 77.633 45.9374V44.55H77.34Z" fill="black"/>
<path d="M82.8149 39.2207C81.8686 39.2207 81.0801 39.6172 80.5618 40.3218L80.4718 39.3308H79.0299V48.1398H80.652V45.1007C81.1702 45.7174 81.9137 46.0477 82.8149 46.0477C84.5271 46.0477 85.7212 44.6823 85.7212 42.6343C85.7212 40.564 84.5723 39.2207 82.8149 39.2207ZM82.3192 44.7264C81.2377 44.7264 80.5845 43.9115 80.5845 42.6343C80.5845 41.3569 81.2377 40.542 82.3192 40.542C83.4006 40.542 84.0765 41.3569 84.0765 42.6343C84.0765 43.9115 83.4006 44.7264 82.3192 44.7264Z" fill="black"/>
<path d="M92.773 44.5722C92.5027 44.5722 92.3676 44.44 92.3676 44.1758V41.4229C92.3676 40.0576 91.3537 39.2207 89.6414 39.2207C88.4473 39.2207 87.4561 39.6172 86.6674 40.3438L87.6362 41.3349C88.1545 40.8064 88.8304 40.52 89.5512 40.52C90.3624 40.52 90.858 40.8284 90.858 41.2908C90.858 41.7313 90.2948 41.8414 89.4161 41.9515C88.132 42.1057 86.5098 42.4361 86.5098 44.1097C86.5098 45.2769 87.4109 46.0477 88.7177 46.0477C89.709 46.0477 90.5877 45.6293 91.0833 44.9686C91.196 45.6734 91.624 45.9816 92.4577 45.9816C92.7505 45.9816 92.9308 45.9596 93.0435 45.9376V44.5722H92.773ZM89.0557 44.7924C88.4473 44.7924 88.0868 44.4842 88.0868 43.9776C88.0868 43.2508 88.8304 43.1407 89.5964 43.0086C90.1596 42.9205 90.5426 42.8545 90.813 42.7003V43.3829C90.813 44.1538 90.0245 44.7924 89.0557 44.7924Z" fill="black"/>
<path d="M93.2687 38.4497H94.9584V37.0403H93.2687V38.4497ZM95.7694 38.4497H97.4593V37.0403H95.7694V38.4497ZM94.5529 45.9374H96.175V39.3306H94.5529V45.9374Z" fill="black"/>
<path d="M102.799 39.3308V41.8414H99.8699V39.3308H98.2478V45.9376H99.8699V43.2949H102.799V45.9376H104.421V39.3308H102.799Z" fill="black"/>
<path d="M110.932 39.3308L107.958 43.6913V39.3308H106.359V45.9376H107.981L110.977 41.5772V45.9376H112.554V39.3308H110.932Z" fill="black"/>
</g>
<defs>
<clipPath id="clip0_19_1403">
<rect width="228" height="49" fill="white" transform="translate(0.333252)"/>
</clipPath>
</defs>
</svg>
