<svg width="32" height="24" viewBox="0 0 32 24" fill="none" xmlns="http://www.w3.org/2000/svg">
<path d="M32 20.0556C32 22.0191 30.408 23.6111 28.4444 23.6111H3.55556C1.592 23.6111 0 22.0191 0 20.0556V4.05556C0 2.092 1.592 0.5 3.55556 0.5H28.4444C30.408 0.5 32 2.092 32 4.05556V20.0556Z" fill="#CCD6DD"/>
<path d="M10.6223 11.732L0.566273 21.788C0.542273 21.8129 0.533384 21.844 0.512939 21.8689C0.815162 22.3756 1.23649 22.796 1.74316 23.0992C1.76894 23.0787 1.79916 23.0698 1.82316 23.0458L11.8801 12.9889C12.2267 12.6414 12.2267 12.0796 11.8801 11.732C11.5316 11.3845 10.9698 11.3845 10.6223 11.732ZM31.4872 21.8689C31.4685 21.844 31.4578 21.8129 31.4338 21.7889L21.3787 11.732C21.0303 11.3845 20.4685 11.3845 20.1209 11.732C19.7734 12.0805 19.7734 12.6423 20.1209 12.9889L30.1769 23.0458C30.2001 23.0689 30.2321 23.0787 30.2569 23.0992C30.7645 22.7969 31.1849 22.3756 31.4872 21.8689Z" fill="#99AAB5"/>
<path d="M28.4444 0.5H3.55556C1.592 0.5 0 2.092 0 4.05556V4.97111L12.9138 17.8564C14.5973 19.5391 17.3476 19.5391 19.0329 17.8564L32 4.95244V4.05556C32 2.092 30.408 0.5 28.4444 0.5Z" fill="#99AAB5"/>
<path d="M28.4444 0.5H3.55554C2.14399 0.5 0.934208 1.33022 0.359985 2.52222L13.4853 15.6484C14.8738 17.0369 17.1262 17.0369 18.5138 15.6484L31.64 2.52222C31.0658 1.33022 29.8569 0.5 28.4444 0.5Z" fill="#E1E8ED"/>
</svg>
