<svg width="32" height="33" viewBox="0 0 32 33" fill="none" xmlns="http://www.w3.org/2000/svg">
<path d="M26.6666 20.0555C24 20.0555 20.7217 26.3613 20.4444 28.9444C20.0702 32.4244 22.2222 32.5 22.2222 32.5H32V23.6111C32 23.6111 28.944 20.0555 26.6666 20.0555Z" fill="#50A5E6"/>
<path d="M25.7705 26.552C27.2059 24.0657 27.805 21.7243 27.1086 21.3222C26.4122 20.9201 24.684 22.6097 23.2486 25.096C21.8131 27.5823 21.214 29.9237 21.9104 30.3258C22.6068 30.7278 24.335 29.0383 25.7705 26.552Z" fill="#1C6399"/>
<path d="M17.8542 0.5C18.904 0.5 19.7547 1.35067 19.7547 2.40044C19.7547 3.10178 20.3484 12.0218 20.3484 12.0218L15.9538 16.5V2.40044C15.9538 1.35067 16.8044 0.5 17.8542 0.5Z" fill="#F9CA55"/>
<path d="M16.7778 4.34271C16.7778 3.36582 17.5351 2.57471 18.4693 2.57471C19.4035 2.57471 20.1609 3.36671 20.1609 4.34271C20.1609 4.34271 20.6364 9.62448 21.2204 12.6716C22.0009 14.3303 22.4373 16.8334 22.3413 18.2254C22.3893 18.5792 27.3413 22.6752 27.3413 22.6752C27.0915 24.2867 25.3333 28.1463 23.1111 29.9276L19.9813 27.3285C17.4169 26.9694 16.0186 24.3676 16.0186 23.5383C16.0186 20.8858 16.7778 4.34271 16.7778 4.34271Z" fill="#FFDC5D"/>
<path d="M5.33333 20.0555C8 20.0555 11.2782 26.3613 11.5556 28.9444C11.9298 32.4244 9.77778 32.5 9.77778 32.5H0V23.6111C0 23.6111 3.056 20.0555 5.33333 20.0555Z" fill="#50A5E6"/>
<path d="M10.0887 30.3245C10.7851 29.9225 10.1859 27.581 8.75049 25.0947C7.31504 22.6085 5.58684 20.9189 4.89045 21.321C4.19406 21.723 4.79318 24.0645 6.22863 26.5507C7.66408 29.037 9.39228 30.7266 10.0887 30.3245Z" fill="#1C6399"/>
<path d="M14.2765 0.509764C13.1511 0.396875 12.2027 1.27776 12.2027 2.3791C12.2027 3.07243 12.0391 11.5515 12.0391 11.5515L15.9067 16.5L15.9618 2.48665C15.9618 1.50354 15.2551 0.607542 14.2765 0.509764Z" fill="#F9CA55"/>
<path d="M15.2222 4.34271C15.2222 3.36582 14.4649 2.57471 13.5307 2.57471C12.5965 2.57471 11.8391 3.36671 11.8391 4.34271C11.8391 4.34271 11.3636 9.62448 10.7796 12.6716C9.99914 14.3303 9.56269 16.8334 9.65869 18.2254C9.61069 18.5792 4.65869 22.6752 4.65869 22.6752C4.90847 24.2867 6.66669 28.1463 8.88891 29.9276L12.0187 27.3285C14.5831 26.9694 15.9814 24.3676 15.9814 23.5383C15.9814 20.8858 15.2222 4.34271 15.2222 4.34271Z" fill="#FFDC5D"/>
<path d="M15.9627 23.4538C15.5947 23.4538 15.296 23.1551 15.296 22.7871V2.98179C15.296 2.61379 15.5947 2.31512 15.9627 2.31512C16.3307 2.31512 16.6293 2.61379 16.6293 2.98179V22.788C16.6302 23.1551 16.3315 23.4538 15.9627 23.4538Z" fill="#F9CA55"/>
</svg>
