<svg width="32" height="33" viewBox="0 0 32 33" fill="none" xmlns="http://www.w3.org/2000/svg">
<path d="M32 16.5C32 25.3364 24.8364 32.5 16 32.5C7.16444 32.5 0 25.3364 0 16.5C0 7.66444 7.16444 0.5 16 0.5C24.8364 0.5 32 7.66444 32 16.5Z" fill="#FFCB4C"/>
<path d="M10.8231 16.8699C12.1226 16.8699 13.176 15.395 13.176 13.5757C13.176 11.7563 12.1226 10.2814 10.8231 10.2814C9.52364 10.2814 8.47021 11.7563 8.47021 13.5757C8.47021 15.395 9.52364 16.8699 10.8231 16.8699Z" fill="#65471B"/>
<path d="M22.1173 19.3231C25.4958 19.3231 28.2347 16.5843 28.2347 13.2058C28.2347 9.82726 25.4958 7.08844 22.1173 7.08844C18.7388 7.08844 16 9.82726 16 13.2058C16 16.5843 18.7388 19.3231 22.1173 19.3231Z" fill="#F4F7F9"/>
<path d="M13.1778 9.34083C12.8916 9.34083 12.609 9.21105 12.4241 8.96483C11.5432 7.79061 10.6214 7.16127 9.68362 7.09461C8.44806 7.01016 7.44095 7.93638 7.2534 8.12394C6.8854 8.49194 6.28984 8.49194 5.92273 8.12394C5.55473 7.75594 5.55473 7.16038 5.92273 6.79327C6.32895 6.38705 7.81517 5.07238 9.81695 5.21727C11.3236 5.32394 12.7067 6.20483 13.9298 7.83505C14.2418 8.25105 14.1574 8.84127 13.7423 9.15238C13.5716 9.27949 13.3734 9.34083 13.1778 9.34083Z" fill="#65471B"/>
<path d="M29.1769 32.5C28.6569 32.5 28.2356 32.0787 28.2356 31.5587V13.6769C28.2356 13.1569 28.6569 12.7356 29.1769 12.7356C29.6969 12.7356 30.1183 13.1569 30.1183 13.6769V31.5596C30.1174 32.0787 29.6969 32.5 29.1769 32.5Z" fill="#292F33"/>
<path d="M29.1769 11.7943C29.1289 11.7943 29.0836 11.8049 29.0365 11.8085C28.3858 8.5836 25.5316 6.14716 22.1174 6.14716C18.2249 6.14716 15.0587 9.31338 15.0587 13.2058C15.0587 17.0983 18.2249 20.2645 22.1174 20.2645C25.2 20.2645 27.8205 18.2752 28.7805 15.5152C28.9085 15.5427 29.0401 15.5587 29.1761 15.5587C30.2161 15.5587 31.0587 14.716 31.0587 13.676C31.0587 12.6369 30.2161 11.7943 29.1769 11.7943ZM22.1174 18.3827C19.2632 18.3827 16.9414 16.0609 16.9414 13.2058C16.9414 10.3507 19.264 8.02893 22.1174 8.02893C24.9716 8.02893 27.2943 10.3507 27.2943 13.2058C27.2943 16.0609 24.9716 18.3827 22.1174 18.3827Z" fill="#67757F"/>
<path d="M18.8222 25.9117C18.6809 25.9117 18.5369 25.8797 18.4018 25.8121C16.7849 25.0032 15.2133 25.0032 13.5965 25.8121C13.1307 26.0441 12.5653 25.8565 12.3333 25.3908C12.1005 24.9259 12.2889 24.3605 12.7547 24.1277C14.9067 23.0521 17.0898 23.0521 19.2436 24.1277C19.7085 24.3605 19.8969 24.9259 19.6649 25.3908C19.5005 25.7214 19.168 25.9117 18.8222 25.9117Z" fill="#65471B"/>
<path d="M24.9324 8.86534C24.1218 8.33823 23.1564 8.02979 22.1173 8.02979C19.2587 8.02979 16.9404 10.3471 16.9404 13.2067C16.9404 14.2458 17.2498 15.2111 17.776 16.0218L24.9324 8.86534ZM19.9084 17.8822C20.5795 18.1996 21.3262 18.3827 22.1173 18.3827C24.976 18.3827 27.2942 16.0653 27.2942 13.2058C27.2942 12.4147 27.1111 11.6671 26.7938 10.9969L19.9084 17.8822Z" fill="#BDDDF4"/>
</svg>
