<svg width="32" height="33" viewBox="0 0 32 33" fill="none" xmlns="http://www.w3.org/2000/svg">
<path d="M25.0812 7.21425C32.2193 14.1402 34.148 23.4999 29.3896 28.1162C24.6313 32.7345 14.9895 30.8625 7.85248 23.9366C7.61005 23.7013 7.38896 23.4566 7.15817 23.2157L11.4414 19.0586C16.992 24.4458 24.0631 26.3186 27.234 23.2392C30.4059 20.1607 28.4772 13.2978 22.9275 7.9107L22.9489 7.93047L22.9285 7.90976C16.5857 1.75276 7.90678 0.193276 3.54601 4.42563C1.4369 6.47262 0.736773 9.50124 1.27884 12.7764C0.446831 8.93373 1.13338 5.37336 3.54601 3.03272C8.30339 -1.58455 17.9452 0.287391 25.0812 7.21425Z" fill="#FDD888"/>
<path d="M15.906 32.4992C15.6616 32.4992 15.4182 32.4268 15.2088 32.2818L10.2865 28.8551L5.36431 32.2818C4.94443 32.5736 4.382 32.5736 3.96503 32.2771C3.54805 31.9835 3.37254 31.464 3.52866 30.9887L5.36528 25.2383L0.486691 21.9019C0.071657 21.6054 -0.0999811 21.084 0.058081 20.6078C0.218083 20.1335 0.672875 19.8107 1.18779 19.8069L7.14857 19.7956L9.15295 14.1892C9.31587 13.7148 9.7726 13.3948 10.2875 13.3948C10.8024 13.3948 11.2592 13.7148 11.4221 14.1892L13.2315 19.7956L19.3863 19.8069C19.9021 19.8107 20.3579 20.1335 20.516 20.6078C20.675 21.084 20.5024 21.6054 20.0874 21.9019L15.2088 25.2383L17.0444 30.9887C17.2015 31.464 17.0241 31.9844 16.609 32.2771C16.3986 32.4258 16.1523 32.4992 15.906 32.4992Z" fill="#FFAC33"/>
</svg>
