<svg width="57" height="62" viewBox="0 0 57 62" fill="none" xmlns="http://www.w3.org/2000/svg">
<path d="M12.5846 24.0168H8.90715C8.39966 24.0168 7.98779 23.6049 7.98779 23.0975V10.2265C7.98779 9.71902 8.39966 9.30714 8.90715 9.30714H12.5846C13.0921 9.30714 13.5039 9.71902 13.5039 10.2265V23.0975C13.5039 23.6049 13.0921 24.0168 12.5846 24.0168Z" fill="#A0041E"/>
<path d="M4.5957 26.4034L28.4989 2.5002L52.4022 26.4034V57.6615H4.5957V26.4034Z" fill="#FFE8B6"/>
<path d="M28.5 26.4035H30.3387V55.8228H28.5V26.4035Z" fill="#FFCC4D"/>
<path d="M52.4019 28.2421C51.9312 28.2421 51.4605 28.062 51.102 27.7034L28.4987 5.10015L5.89548 27.7034C5.17655 28.4223 4.01448 28.4223 3.29555 27.7034C2.57661 26.9845 2.57661 25.8224 3.29555 25.1035L27.1988 1.20025C27.9177 0.481315 29.0798 0.481315 29.7987 1.20025L53.7019 25.1035C54.4208 25.8224 54.4208 26.9845 53.7019 27.7034C53.3434 28.062 52.8727 28.2421 52.4019 28.2421Z" fill="#66757F"/>
<path d="M28.5008 28.2422C28.0301 28.2422 27.5594 28.062 27.2008 27.7034C26.4819 26.9845 26.4819 25.8224 27.2008 25.1035L39.1524 13.1519C39.8714 12.4329 41.0334 12.4329 41.7524 13.1519C42.4713 13.8708 42.4713 15.0329 41.7524 15.7518L29.8008 27.7034C29.4422 28.062 28.9715 28.2422 28.5008 28.2422Z" fill="#66757F"/>
<path d="M13.7871 44.7905H21.1419V55.8228H13.7871V44.7905Z" fill="#C1694F"/>
<path d="M13.7871 28.2422H21.142V35.597H13.7871V28.2422ZM36.771 28.2422H44.1258V35.597H36.771V28.2422ZM36.771 44.7906H44.1258V52.1454H36.771V44.7906Z" fill="#55ACEE"/>
<path d="M57 58.5809C57 60.1033 55.7644 61.3389 54.2419 61.3389H2.75806C1.23561 61.3389 0 60.1033 0 58.5809C0 57.0584 1.23561 55.8228 2.75806 55.8228H54.2419C55.7644 55.8228 57 57.0584 57 58.5809Z" fill="#5C913B"/>
</svg>
