<svg width="220" height="38" viewBox="0 0 220 38" fill="none" xmlns="http://www.w3.org/2000/svg">
<g clip-path="url(#clip0_470_704)">
<path d="M76.887 11.9969C75.321 11.9969 73.7902 12.4602 72.4882 13.3279C71.1862 14.1957 70.1714 15.4291 69.572 16.8721C68.9728 18.3153 68.816 19.9031 69.1215 21.4351C69.427 22.9671 70.1811 24.3743 71.2884 25.4788C72.3957 26.5832 73.8065 27.3354 75.3423 27.6402C76.8782 27.9449 78.4701 27.7885 79.9169 27.1907C81.3637 26.593 82.6002 25.5808 83.4702 24.2821C84.3403 22.9833 84.8046 21.4564 84.8046 19.8944C84.8084 18.8562 84.6062 17.8276 84.2097 16.8677C83.8131 15.9079 83.2301 15.0357 82.4941 14.3016C81.7582 13.5675 80.8837 12.9859 79.9214 12.5904C78.9591 12.1948 77.9278 11.9932 76.887 11.9969ZM76.887 24.2815C74.2474 24.2815 72.4887 22.5272 72.4887 19.8944C72.4887 17.2616 74.2474 15.5073 76.887 15.5073C79.5265 15.5073 81.2852 17.2663 81.2852 19.8944C81.2852 22.5227 79.5265 24.2815 76.887 24.2815Z" fill="white"/>
<path d="M115.496 11.9969C113.93 11.9969 112.4 12.4602 111.098 13.3279C109.795 14.1957 108.781 15.4291 108.181 16.8721C107.582 18.3153 107.425 19.9031 107.731 21.4351C108.036 22.9671 108.79 24.3743 109.898 25.4788C111.005 26.5832 112.416 27.3354 113.952 27.6402C115.488 27.9449 117.08 27.7885 118.526 27.1907C119.973 26.593 121.209 25.5808 122.079 24.2821C122.95 22.9833 123.414 21.4564 123.414 19.8944C123.418 18.8562 123.215 17.8276 122.819 16.8677C122.422 15.9079 121.839 15.0357 121.104 14.3016C120.368 13.5675 119.493 12.9859 118.531 12.5904C117.568 12.1948 116.537 11.9932 115.496 11.9969ZM115.496 24.2815C112.857 24.2815 111.098 22.5272 111.098 19.8944C111.098 17.2616 112.857 15.5073 115.496 15.5073C118.135 15.5073 119.894 17.2663 119.894 19.8944C119.894 22.5227 118.135 24.2815 115.496 24.2815Z" fill="white"/>
<path d="M102.503 12.396H89.0454C88.9469 12.396 88.8525 12.435 88.7829 12.5044C88.7133 12.5739 88.6742 12.668 88.6742 12.7663V15.3583C88.6742 15.4566 88.7133 15.5507 88.7829 15.6202C88.8525 15.6896 88.9469 15.7286 89.0454 15.7286H89.5095V27.0226C89.5095 27.1209 89.5486 27.215 89.6182 27.2845C89.6878 27.354 89.7822 27.393 89.8807 27.393H92.4794C92.5779 27.393 92.6723 27.354 92.7419 27.2845C92.8115 27.215 92.8506 27.1209 92.8506 27.0226V15.7286H99.5329V27.0226C99.5329 27.1209 99.572 27.215 99.6417 27.2845C99.7113 27.354 99.8057 27.393 99.9042 27.393H102.503C102.601 27.393 102.696 27.354 102.765 27.2845C102.835 27.215 102.874 27.1209 102.874 27.0226V12.7663C102.874 12.668 102.835 12.5739 102.765 12.5044C102.696 12.435 102.601 12.396 102.503 12.396Z" fill="white"/>
<path d="M147.793 12.396H145.18C145.07 12.396 144.959 12.421 144.859 12.4691C144.759 12.5172 144.67 12.5871 144.602 12.6737L138.141 20.7276L131.682 12.6737C131.612 12.5871 131.525 12.5172 131.424 12.4691C131.324 12.421 131.214 12.396 131.103 12.396H127.655C127.556 12.396 127.461 12.435 127.392 12.5044C127.322 12.5739 127.283 12.668 127.283 12.7663V15.3583C127.283 15.4566 127.322 15.5507 127.392 15.6202C127.461 15.6896 127.556 15.7286 127.655 15.7286H128.118V27.0226C128.118 27.1209 128.158 27.215 128.227 27.2845C128.296 27.354 128.392 27.393 128.489 27.393H131.089C131.186 27.393 131.281 27.354 131.35 27.2845C131.42 27.215 131.46 27.1209 131.46 27.0226V17.395L137.853 25.3656C137.886 25.4088 137.931 25.4437 137.981 25.4677C138.031 25.4917 138.087 25.5042 138.141 25.5042C138.197 25.5042 138.252 25.4917 138.302 25.4677C138.352 25.4437 138.396 25.4088 138.431 25.3656L144.824 17.395V27.0226C144.824 27.1209 144.864 27.215 144.932 27.2845C145.002 27.354 145.096 27.393 145.195 27.393H147.793C147.892 27.393 147.987 27.354 148.057 27.2845C148.126 27.215 148.165 27.1209 148.165 27.0226V12.7663C148.165 12.668 148.126 12.5739 148.057 12.5044C147.987 12.435 147.892 12.396 147.793 12.396Z" fill="white"/>
<path d="M168.298 26.942L165.186 12.9754C165.149 12.8109 165.057 12.6639 164.926 12.5586C164.794 12.4532 164.63 12.3958 164.461 12.3958H157.3C157.272 12.3944 157.245 12.3944 157.219 12.3958C157.201 12.3949 157.185 12.3949 157.168 12.3958H155.405C155.306 12.3958 155.212 12.4348 155.142 12.5043C155.072 12.5738 155.034 12.668 155.034 12.7661V15.3583C155.034 15.4564 155.072 15.5507 155.142 15.62C155.212 15.6895 155.306 15.7285 155.405 15.7285H155.961L153.463 26.942C153.451 26.9963 153.452 27.0526 153.463 27.1067C153.476 27.1609 153.502 27.2115 153.537 27.2548C153.572 27.2981 153.616 27.333 153.666 27.3569C153.716 27.3807 153.771 27.3931 153.827 27.3928H156.405C156.49 27.3928 156.572 27.3639 156.639 27.3105C156.704 27.2573 156.751 27.1831 156.768 27.1003L157.418 24.0602H164.339L164.99 27.1003C165.007 27.1831 165.052 27.2573 165.119 27.3105C165.185 27.3639 165.267 27.3928 165.352 27.3928H167.933C167.989 27.3931 168.045 27.3807 168.095 27.3569C168.145 27.333 168.189 27.2981 168.224 27.2548C168.259 27.2115 168.284 27.1609 168.297 27.1067C168.309 27.0526 168.309 26.9963 168.298 26.942ZM158.136 20.7275L159.21 15.7285H162.551L163.625 20.7275H158.136Z" fill="white"/>
<path d="M183.247 12.396H173.136C173.036 12.396 172.941 12.4356 172.87 12.506C172.8 12.5765 172.76 12.6721 172.76 12.7719V15.3527C172.76 15.4525 172.8 15.548 172.87 15.6186C172.941 15.689 173.036 15.7286 173.136 15.7286H173.595V27.0226C173.595 27.1209 173.635 27.215 173.705 27.2845C173.773 27.354 173.867 27.393 173.966 27.393H176.566C176.663 27.393 176.758 27.354 176.828 27.2845C176.897 27.215 176.936 27.1209 176.936 27.0226V15.7286H183.247C183.346 15.7286 183.44 15.6896 183.51 15.6202C183.58 15.5507 183.618 15.4566 183.618 15.3583V12.7663C183.618 12.668 183.58 12.5739 183.51 12.5044C183.44 12.435 183.346 12.396 183.247 12.396Z" fill="white"/>
<path d="M202.171 26.9422L199.06 12.9754C199.023 12.8111 198.931 12.6641 198.8 12.5587C198.668 12.4534 198.504 12.3959 198.335 12.396H189.187C189.088 12.396 188.994 12.435 188.924 12.5044C188.854 12.5739 188.816 12.668 188.816 12.7663V15.3583C188.816 15.4566 188.854 15.5507 188.924 15.6202C188.994 15.6896 189.088 15.7286 189.187 15.7286H189.837L187.339 26.9422C187.327 26.9963 187.327 27.0525 187.34 27.1065C187.353 27.1607 187.377 27.2112 187.412 27.2545C187.447 27.2978 187.491 27.3327 187.541 27.3567C187.591 27.3807 187.646 27.393 187.702 27.393H190.28C190.365 27.393 190.448 27.3639 190.513 27.3107C190.579 27.2574 190.625 27.1833 190.643 27.1005L191.293 24.0603H198.213L198.864 27.1005C198.881 27.1833 198.927 27.2574 198.993 27.3107C199.059 27.3639 199.141 27.393 199.226 27.393H201.809C201.865 27.3929 201.919 27.3804 201.969 27.3563C202.019 27.3324 202.064 27.2974 202.099 27.2541C202.133 27.2108 202.158 27.1603 202.171 27.1064C202.182 27.0524 202.183 26.9962 202.171 26.9422ZM192.009 20.7276L193.084 15.7286H196.426L197.501 20.7276H192.009Z" fill="white"/>
<path d="M219.629 12.396H217.029C216.932 12.396 216.837 12.435 216.768 12.5044C216.698 12.5739 216.659 12.668 216.659 12.7663V14.8028L209.883 20.8203V12.7663C209.883 12.668 209.845 12.5739 209.775 12.5044C209.705 12.435 209.611 12.396 209.512 12.396H206.078C205.981 12.396 205.885 12.435 205.816 12.5044C205.747 12.5739 205.707 12.668 205.707 12.7663V15.3583C205.707 15.4566 205.747 15.5507 205.816 15.6202C205.885 15.6896 205.981 15.7286 206.078 15.7286H206.543V27.0226C206.543 27.1209 206.581 27.215 206.651 27.2845C206.721 27.354 206.815 27.393 206.914 27.393H209.519C209.617 27.393 209.711 27.354 209.781 27.2845C209.851 27.215 209.89 27.1209 209.89 27.0226V25.1434L216.659 19.2465V27.0226C216.659 27.1209 216.698 27.215 216.768 27.2845C216.837 27.354 216.932 27.393 217.029 27.393H219.629C219.728 27.393 219.822 27.354 219.892 27.2845C219.96 27.215 220 27.1209 220 27.0226V12.7663C220 12.668 219.96 12.5739 219.892 12.5044C219.822 12.435 219.728 12.396 219.629 12.396Z" fill="white"/>
<path d="M210.811 7.76726V10.3593C210.811 10.5638 210.978 10.7296 211.183 10.7296H215.452C215.657 10.7296 215.823 10.5638 215.823 10.3593V7.76726C215.823 7.56275 215.657 7.39697 215.452 7.39697H211.183C210.978 7.39697 210.811 7.56275 210.811 7.76726Z" fill="white"/>
<path d="M65.3791 24.0603H64.0797V12.7663C64.0797 12.668 64.0406 12.5739 63.971 12.5044C63.9014 12.435 63.807 12.396 63.7085 12.396H52.7569C52.6585 12.396 52.5641 12.435 52.4944 12.5044C52.4248 12.5739 52.3857 12.668 52.3857 12.7663V15.3583C52.3857 15.4566 52.4248 15.5507 52.4944 15.6202C52.5641 15.6896 52.6585 15.7286 52.7569 15.7286H53.1922L49.0445 24.0603H46.9099C46.8862 24.0603 46.8626 24.0629 46.8394 24.0678H46.8338C46.74 24.0877 46.6575 24.1431 46.6037 24.2223C46.591 24.2411 46.5802 24.2609 46.5712 24.2816V24.2889C46.5627 24.3093 46.5562 24.3304 46.5516 24.3519C46.5472 24.3739 46.545 24.3962 46.5451 24.4186L46.5387 24.4306V28.689C46.5387 28.7873 46.5778 28.8814 46.6474 28.9508C46.7171 29.0203 46.8115 29.0593 46.9099 29.0593H49.5086C49.6071 29.0593 49.7015 29.0203 49.7711 28.9508C49.8407 28.8814 49.8798 28.7873 49.8798 28.689V27.393H65.3791C65.4775 27.393 65.572 27.354 65.6416 27.2845C65.7112 27.215 65.7503 27.1209 65.7503 27.0227V24.4306C65.7503 24.3325 65.7112 24.2382 65.6416 24.1688C65.572 24.0993 65.4775 24.0603 65.3791 24.0603ZM60.7386 24.0603H52.7569L56.5621 15.7286H60.7386V24.0603Z" fill="white"/>
<path d="M18.0484 5.02975L3.42281 14.6871C3.26251 14.816 3.13312 14.9793 3.04418 15.1648C2.95523 15.3505 2.90901 15.5537 2.90891 15.7596V36.2089C2.90891 36.4824 3.01724 36.7446 3.21011 36.9381C3.40296 37.1314 3.66456 37.2401 3.9374 37.2404L33.8749 37.2488C34.1477 37.2488 34.4093 37.1402 34.6022 36.9468C34.795 36.7536 34.9034 36.4914 34.9034 36.218V15.7596C34.9033 15.5537 34.8571 15.3505 34.7681 15.1648C34.6792 14.9793 34.5498 14.816 34.3895 14.6871L19.7639 5.02975C19.5134 4.85126 19.2136 4.75537 18.9061 4.75537C18.5987 4.75537 18.299 4.85126 18.0484 5.02975Z" fill="#06599C"/>
<path d="M18.0484 5.02975L3.42281 14.6871C3.26251 14.816 3.13312 14.9793 3.04418 15.1648C2.95523 15.3505 2.90901 15.5537 2.90891 15.7596V36.2089C2.90891 36.4824 3.01724 36.7446 3.21011 36.9381C3.40296 37.1314 3.66456 37.2401 3.9374 37.2404L33.8749 37.2488C34.1477 37.2488 34.4093 37.1402 34.6022 36.9468C34.795 36.7536 34.9034 36.4914 34.9034 36.218V15.7596C34.9033 15.5537 34.8571 15.3505 34.7681 15.1648C34.6792 14.9793 34.5498 14.816 34.3895 14.6871L19.7639 5.02975C19.5134 4.85126 19.2136 4.75537 18.9061 4.75537C18.5987 4.75537 18.299 4.85126 18.0484 5.02975Z" fill="url(#paint0_linear_470_704)"/>
<path d="M18.0484 5.02975L3.42281 14.6871C3.26251 14.816 3.13312 14.9793 3.04418 15.1648C2.95523 15.3505 2.90901 15.5537 2.90891 15.7596V36.2089C2.90891 36.4824 3.01724 36.7446 3.21011 36.9381C3.40296 37.1314 3.66456 37.2401 3.9374 37.2404L33.8749 37.2488C34.1477 37.2488 34.4093 37.1402 34.6022 36.9468C34.795 36.7536 34.9034 36.4914 34.9034 36.218V15.7596C34.9033 15.5537 34.8571 15.3505 34.7681 15.1648C34.6792 14.9793 34.5498 14.816 34.3895 14.6871L19.7639 5.02975C19.5134 4.85126 19.2136 4.75537 18.9061 4.75537C18.5987 4.75537 18.299 4.85126 18.0484 5.02975Z" fill="url(#paint1_linear_470_704)"/>
<path d="M15.1395 0.274636L0.513898 9.93203C0.353603 10.0609 0.224211 10.2241 0.135269 10.4097C0.046325 10.5953 9.90746e-05 10.7986 0 11.0045V31.4538C-6.22801e-08 31.7272 0.108336 31.9895 0.301196 32.1829C0.494056 32.3763 0.755655 32.485 1.02849 32.4852L30.966 32.4936C31.2388 32.4936 31.5004 32.385 31.6933 32.1917C31.8862 31.9984 31.9945 31.7363 31.9945 31.4629V11.0045C31.9944 10.7986 31.9482 10.5953 31.8593 10.4097C31.7703 10.2241 31.6409 10.0609 31.4806 9.93203L16.855 0.274636C16.6044 0.0961447 16.3047 0.000244141 15.9973 0.000244141C15.6898 0.000244141 15.39 0.0961447 15.1395 0.274636Z" fill="#06599C"/>
<path d="M15.1395 0.274636L0.513898 9.93203C0.353603 10.0609 0.224211 10.2241 0.135269 10.4097C0.046325 10.5953 9.90746e-05 10.7986 0 11.0045V31.4538C-6.22801e-08 31.7272 0.108336 31.9895 0.301196 32.1829C0.494056 32.3763 0.755655 32.485 1.02849 32.4852L30.966 32.4936C31.2388 32.4936 31.5004 32.385 31.6933 32.1917C31.8862 31.9984 31.9945 31.7363 31.9945 31.4629V11.0045C31.9944 10.7986 31.9482 10.5953 31.8593 10.4097C31.7703 10.2241 31.6409 10.0609 31.4806 9.93203L16.855 0.274636C16.6044 0.0961447 16.3047 0.000244141 15.9973 0.000244141C15.6898 0.000244141 15.39 0.0961447 15.1395 0.274636Z" fill="url(#paint2_linear_470_704)"/>
</g>
<defs>
<linearGradient id="paint0_linear_470_704" x1="8.24132" y1="7.42887" x2="27.4221" y2="40.208" gradientUnits="userSpaceOnUse">
<stop stop-color="#4170EE"/>
<stop offset="1" stop-color="#2548A9"/>
</linearGradient>
<linearGradient id="paint1_linear_470_704" x1="8.24132" y1="7.42887" x2="27.4221" y2="40.208" gradientUnits="userSpaceOnUse">
<stop stop-color="#FFDB1D"/>
<stop offset="1" stop-color="#E4A80D"/>
</linearGradient>
<linearGradient id="paint2_linear_470_704" x1="5.33242" y1="2.67375" x2="24.5132" y2="35.453" gradientUnits="userSpaceOnUse">
<stop stop-color="#4170EE"/>
<stop offset="1" stop-color="#2548A9"/>
</linearGradient>
<clipPath id="clip0_470_704">
<rect width="220" height="37.2487" fill="white"/>
</clipPath>
</defs>
</svg>
