<svg width="189" height="32" viewBox="0 0 189 32" fill="none" xmlns="http://www.w3.org/2000/svg">
<g clip-path="url(#clip0_436_523)">
<path d="M66.0529 10.3064C64.7076 10.3064 63.3925 10.7044 62.274 11.4499C61.1554 12.1954 60.2836 13.255 59.7687 14.4947C59.2539 15.7345 59.1192 17.0986 59.3817 18.4147C59.6441 19.7308 60.292 20.9397 61.2432 21.8886C62.1945 22.8374 63.4065 23.4836 64.7259 23.7454C66.0454 24.0072 67.413 23.8728 68.6559 23.3593C69.8988 22.8458 70.9611 21.9762 71.7085 20.8605C72.456 19.7447 72.8549 18.433 72.8549 17.0911C72.8581 16.1992 72.6844 15.3155 72.3438 14.4909C72.0031 13.6663 71.5022 12.917 70.8699 12.2864C70.2377 11.6557 69.4865 11.1561 68.6598 10.8163C67.8331 10.4764 66.9471 10.3032 66.0529 10.3064ZM66.0529 20.86C63.7853 20.86 62.2744 19.3529 62.2744 17.0911C62.2744 14.8293 63.7853 13.3222 66.0529 13.3222C68.3205 13.3222 69.8314 14.8333 69.8314 17.0911C69.8314 19.349 68.3205 20.86 66.0529 20.86Z" fill="black"/>
<path d="M99.2219 10.3064C97.8766 10.3064 96.5615 10.7044 95.4429 11.4499C94.3243 12.1954 93.4525 13.255 92.9377 14.4947C92.4229 15.7345 92.2882 17.0986 92.5506 18.4147C92.8131 19.7308 93.4609 20.9397 94.4122 21.8886C95.3634 22.8374 96.5754 23.4836 97.8949 23.7454C99.2143 24.0072 100.582 23.8728 101.825 23.3593C103.068 22.8458 104.13 21.9762 104.877 20.8605C105.625 19.7447 106.024 18.433 106.024 17.0911C106.027 16.1992 105.853 15.3155 105.513 14.4909C105.172 13.6663 104.671 12.917 104.039 12.2864C103.407 11.6557 102.655 11.1561 101.829 10.8163C101.002 10.4764 100.116 10.3032 99.2219 10.3064ZM99.2219 20.86C96.9543 20.86 95.4434 19.3529 95.4434 17.0911C95.4434 14.8293 96.9543 13.3222 99.2219 13.3222C101.489 13.3222 103 14.8333 103 17.0911C103 19.349 101.489 20.86 99.2219 20.86Z" fill="black"/>
<path d="M88.0593 10.6492H76.4981C76.4135 10.6492 76.3324 10.6827 76.2726 10.7423C76.2128 10.802 76.1792 10.8829 76.1792 10.9673V13.1941C76.1792 13.2785 76.2128 13.3594 76.2726 13.4191C76.3324 13.4787 76.4135 13.5122 76.4981 13.5122H76.8968V23.2148C76.8968 23.2992 76.9304 23.3801 76.9902 23.4398C77.05 23.4995 77.1311 23.533 77.2157 23.533H79.4482C79.5328 23.533 79.6139 23.4995 79.6737 23.4398C79.7335 23.3801 79.7671 23.2992 79.7671 23.2148V13.5122H85.5078V23.2148C85.5078 23.2992 85.5414 23.3801 85.6013 23.4398C85.6611 23.4995 85.7422 23.533 85.8268 23.533H88.0593C88.1439 23.533 88.225 23.4995 88.2848 23.4398C88.3446 23.3801 88.3782 23.2992 88.3782 23.2148V10.9673C88.3782 10.8829 88.3446 10.802 88.2848 10.7423C88.225 10.6827 88.1439 10.6492 88.0593 10.6492Z" fill="black"/>
<path d="M126.968 10.6492H124.723C124.628 10.6492 124.533 10.6707 124.447 10.712C124.361 10.7533 124.285 10.8134 124.226 10.8878L118.676 17.8068L113.127 10.8878C113.067 10.8134 112.992 10.7533 112.905 10.712C112.819 10.6707 112.725 10.6492 112.629 10.6492H109.667C109.582 10.6492 109.501 10.6827 109.441 10.7423C109.381 10.802 109.348 10.8829 109.348 10.9673V13.1941C109.348 13.2785 109.381 13.3594 109.441 13.4191C109.501 13.4787 109.582 13.5122 109.667 13.5122H110.065V23.2148C110.065 23.2992 110.099 23.3801 110.159 23.4398C110.218 23.4995 110.3 23.533 110.384 23.533H112.617C112.701 23.533 112.782 23.4995 112.842 23.4398C112.902 23.3801 112.936 23.2992 112.936 23.2148V14.9438L118.428 21.7913C118.457 21.8284 118.495 21.8584 118.538 21.879C118.581 21.8996 118.629 21.9103 118.676 21.9103C118.724 21.9103 118.771 21.8996 118.814 21.879C118.857 21.8584 118.895 21.8284 118.925 21.7913L124.417 14.9438V23.2148C124.417 23.2992 124.451 23.3801 124.51 23.4398C124.57 23.4995 124.651 23.533 124.736 23.533H126.968C127.053 23.533 127.134 23.4995 127.194 23.4398C127.254 23.3801 127.287 23.2992 127.287 23.2148V10.9673C127.287 10.8829 127.254 10.802 127.194 10.7423C127.134 10.6827 127.053 10.6492 126.968 10.6492Z" fill="black"/>
<path d="M144.583 23.1457L141.91 11.1471C141.878 11.0058 141.799 10.8795 141.686 10.789C141.573 10.6985 141.432 10.6492 141.287 10.6492H135.135C135.111 10.648 135.088 10.648 135.065 10.6492C135.05 10.6484 135.036 10.6484 135.022 10.6492H133.507C133.422 10.6492 133.341 10.6827 133.281 10.7424C133.221 10.8021 133.188 10.883 133.188 10.9673V13.1942C133.188 13.2785 133.221 13.3595 133.281 13.4191C133.341 13.4788 133.422 13.5123 133.507 13.5123H133.985L131.839 23.1457C131.828 23.1923 131.829 23.2407 131.839 23.2872C131.85 23.3337 131.872 23.3772 131.902 23.4144C131.932 23.4516 131.97 23.4816 132.013 23.5021C132.056 23.5226 132.103 23.5332 132.151 23.533H134.366C134.439 23.533 134.51 23.5081 134.567 23.4623C134.623 23.4166 134.663 23.3528 134.678 23.2817L135.236 20.67H141.182L141.741 23.2817C141.756 23.3528 141.795 23.4166 141.852 23.4623C141.909 23.5081 141.979 23.533 142.052 23.533H144.27C144.318 23.5332 144.366 23.5226 144.409 23.5021C144.452 23.4816 144.49 23.4516 144.52 23.4144C144.55 23.3772 144.571 23.3337 144.582 23.2872C144.593 23.2407 144.593 23.1923 144.583 23.1457ZM135.853 17.8069L136.776 13.5123H139.646L140.569 17.8069H135.853Z" fill="black"/>
<path d="M157.426 10.6492H148.74C148.654 10.6492 148.572 10.6832 148.511 10.7437C148.451 10.8043 148.417 10.8864 148.417 10.9721V13.1893C148.417 13.275 148.451 13.3571 148.511 13.4177C148.572 13.4782 148.654 13.5122 148.74 13.5122H149.134V23.2148C149.134 23.2992 149.168 23.3801 149.228 23.4398C149.287 23.4995 149.368 23.533 149.453 23.533H151.686C151.77 23.533 151.851 23.4995 151.911 23.4398C151.971 23.3801 152.004 23.2992 152.004 23.2148V13.5122H157.426C157.511 13.5122 157.592 13.4787 157.652 13.4191C157.712 13.3594 157.745 13.2785 157.745 13.1941V10.9673C157.745 10.8829 157.712 10.802 157.652 10.7423C157.592 10.6827 157.511 10.6492 157.426 10.6492Z" fill="black"/>
<path d="M173.683 23.1457L171.011 11.147C170.979 11.0058 170.9 10.8795 170.787 10.789C170.674 10.6985 170.533 10.6491 170.388 10.6492H162.529C162.444 10.6492 162.363 10.6827 162.303 10.7423C162.243 10.802 162.21 10.8829 162.21 10.9673V13.1941C162.21 13.2785 162.243 13.3594 162.303 13.4191C162.363 13.4787 162.444 13.5122 162.529 13.5122H163.087L160.941 23.1457C160.931 23.1922 160.931 23.2405 160.942 23.2869C160.953 23.3334 160.974 23.3768 161.004 23.414C161.034 23.4512 161.072 23.4812 161.115 23.5018C161.158 23.5224 161.205 23.533 161.253 23.533H163.468C163.541 23.533 163.612 23.508 163.668 23.4623C163.725 23.4165 163.764 23.3528 163.78 23.2817L164.338 20.6699H170.283L170.842 23.2817C170.857 23.3528 170.896 23.4165 170.953 23.4623C171.01 23.508 171.08 23.533 171.153 23.533H173.372C173.42 23.5329 173.467 23.5222 173.51 23.5015C173.553 23.4809 173.591 23.4509 173.621 23.4137C173.651 23.3765 173.672 23.3331 173.683 23.2868C173.693 23.2404 173.694 23.1921 173.683 23.1457ZM164.953 17.8068L165.877 13.5122H168.748L169.671 17.8068H164.953Z" fill="black"/>
<path d="M188.681 10.6492H186.448C186.364 10.6492 186.283 10.6827 186.223 10.7423C186.163 10.802 186.13 10.8829 186.13 10.9673V12.7169L180.309 17.8864V10.9673C180.309 10.8829 180.276 10.802 180.216 10.7423C180.156 10.6827 180.075 10.6492 179.99 10.6492H177.04C176.956 10.6492 176.874 10.6827 176.815 10.7423C176.755 10.802 176.721 10.8829 176.721 10.9673V13.1941C176.721 13.2785 176.755 13.3594 176.815 13.4191C176.874 13.4787 176.956 13.5122 177.04 13.5122H177.439V23.2148C177.439 23.2992 177.472 23.3801 177.532 23.4398C177.592 23.4995 177.673 23.533 177.758 23.533H179.996C180.08 23.533 180.161 23.4995 180.221 23.4398C180.281 23.3801 180.315 23.2992 180.315 23.2148V21.6004L186.13 16.5344V23.2148C186.13 23.2992 186.163 23.3801 186.223 23.4398C186.283 23.4995 186.364 23.533 186.448 23.533H188.681C188.766 23.533 188.847 23.4995 188.907 23.4398C188.966 23.3801 189 23.2992 189 23.2148V10.9673C189 10.8829 188.966 10.802 188.907 10.7423C188.847 10.6827 188.766 10.6492 188.681 10.6492Z" fill="black"/>
<path d="M181.106 6.67269V8.89952C181.106 9.07521 181.249 9.21764 181.425 9.21764H185.093C185.269 9.21764 185.412 9.07521 185.412 8.89952V6.67269C185.412 6.497 185.269 6.35458 185.093 6.35458H181.425C181.249 6.35458 181.106 6.497 181.106 6.67269Z" fill="black"/>
<path d="M56.1666 20.6699H55.0503V10.9673C55.0503 10.8829 55.0167 10.802 54.9569 10.7423C54.8971 10.6827 54.816 10.6492 54.7314 10.6492H45.323C45.2384 10.6492 45.1573 10.6827 45.0975 10.7423C45.0377 10.802 45.0041 10.8829 45.0041 10.9673V13.1941C45.0041 13.2785 45.0377 13.3594 45.0975 13.4191C45.1573 13.4787 45.2384 13.5122 45.323 13.5122H45.6969L42.1337 20.6699H40.2999C40.2795 20.6699 40.2592 20.6721 40.2393 20.6763H40.2345C40.1539 20.6934 40.083 20.741 40.0368 20.8091C40.0259 20.8252 40.0166 20.8422 40.0089 20.86V20.8663C40.0016 20.8838 39.996 20.9019 39.9921 20.9204C39.9883 20.9393 39.9864 20.9585 39.9865 20.9777L39.981 20.988V24.6464C39.981 24.7308 40.0146 24.8117 40.0744 24.8713C40.1342 24.931 40.2153 24.9645 40.2999 24.9645H42.5324C42.617 24.9645 42.6981 24.931 42.7579 24.8713C42.8177 24.8117 42.8513 24.7308 42.8513 24.6464V23.533H56.1666C56.2511 23.533 56.3323 23.4995 56.3921 23.4398C56.4519 23.3801 56.4855 23.2992 56.4855 23.2149V20.988C56.4855 20.9037 56.4519 20.8227 56.3921 20.7631C56.3323 20.7034 56.2511 20.6699 56.1666 20.6699ZM52.18 20.6699H45.323L48.592 13.5122H52.18V20.6699Z" fill="black"/>
<path d="M15.5052 4.32105L2.94051 12.6176C2.8028 12.7283 2.69164 12.8686 2.61523 13.028C2.53882 13.1875 2.49911 13.3621 2.49902 13.539V31.1068C2.49902 31.3417 2.59209 31.567 2.75778 31.7332C2.92346 31.8993 3.1482 31.9927 3.38259 31.9929L29.1016 32.0001C29.336 32.0001 29.5607 31.9068 29.7264 31.7407C29.8921 31.5747 29.9852 31.3495 29.9852 31.1146V13.539C29.9851 13.3621 29.9454 13.1875 29.869 13.028C29.7926 12.8686 29.6814 12.7283 29.5437 12.6176L16.979 4.32105C16.7638 4.16771 16.5062 4.08533 16.2421 4.08533C15.978 4.08533 15.7205 4.16771 15.5052 4.32105Z" fill="#06599C"/>
<path d="M15.5052 4.32105L2.94051 12.6176C2.8028 12.7283 2.69164 12.8686 2.61523 13.028C2.53882 13.1875 2.49911 13.3621 2.49902 13.539V31.1068C2.49902 31.3417 2.59209 31.567 2.75778 31.7332C2.92346 31.8993 3.1482 31.9927 3.38259 31.9929L29.1016 32.0001C29.336 32.0001 29.5607 31.9068 29.7264 31.7407C29.8921 31.5747 29.9852 31.3495 29.9852 31.1146V13.539C29.9851 13.3621 29.9454 13.1875 29.869 13.028C29.7926 12.8686 29.6814 12.7283 29.5437 12.6176L16.979 4.32105C16.7638 4.16771 16.5062 4.08533 16.2421 4.08533C15.978 4.08533 15.7205 4.16771 15.5052 4.32105Z" fill="url(#paint0_linear_436_523)"/>
<path d="M15.5052 4.32105L2.94051 12.6176C2.8028 12.7283 2.69164 12.8686 2.61523 13.028C2.53882 13.1875 2.49911 13.3621 2.49902 13.539V31.1068C2.49902 31.3417 2.59209 31.567 2.75778 31.7332C2.92346 31.8993 3.1482 31.9927 3.38259 31.9929L29.1016 32.0001C29.336 32.0001 29.5607 31.9068 29.7264 31.7407C29.8921 31.5747 29.9852 31.3495 29.9852 31.1146V13.539C29.9851 13.3621 29.9454 13.1875 29.869 13.028C29.7926 12.8686 29.6814 12.7283 29.5437 12.6176L16.979 4.32105C16.7638 4.16771 16.5062 4.08533 16.2421 4.08533C15.978 4.08533 15.7205 4.16771 15.5052 4.32105Z" fill="url(#paint1_linear_436_523)"/>
<path d="M13.0062 0.235972L0.441485 8.53255C0.303777 8.64322 0.192618 8.78347 0.116208 8.94294C0.0397974 9.1024 8.51141e-05 9.27703 0 9.45393V27.0217C-5.35043e-08 27.2566 0.0930708 27.4819 0.258755 27.6481C0.424439 27.8142 0.649176 27.9076 0.883568 27.9078L26.6026 27.915C26.837 27.915 27.0617 27.8217 27.2274 27.6556C27.3931 27.4896 27.4862 27.2644 27.4862 27.0295V9.45393C27.4861 9.27703 27.4464 9.1024 27.37 8.94294C27.2936 8.78347 27.1824 8.64322 27.0447 8.53255L14.48 0.235972C14.2647 0.0826314 14.0072 0.000244141 13.7431 0.000244141C13.479 0.000244141 13.2214 0.0826314 13.0062 0.235972Z" fill="#06599C"/>
<path d="M13.0062 0.235972L0.441485 8.53255C0.303777 8.64322 0.192618 8.78347 0.116208 8.94294C0.0397974 9.1024 8.51141e-05 9.27703 0 9.45393V27.0217C-5.35043e-08 27.2566 0.0930708 27.4819 0.258755 27.6481C0.424439 27.8142 0.649176 27.9076 0.883568 27.9078L26.6026 27.915C26.837 27.915 27.0617 27.8217 27.2274 27.6556C27.3931 27.4896 27.4862 27.2644 27.4862 27.0295V9.45393C27.4861 9.27703 27.4464 9.1024 27.37 8.94294C27.2936 8.78347 27.1824 8.64322 27.0447 8.53255L14.48 0.235972C14.2647 0.0826314 14.0072 0.000244141 13.7431 0.000244141C13.479 0.000244141 13.2214 0.0826314 13.0062 0.235972Z" fill="url(#paint2_linear_436_523)"/>
</g>
<defs>
<linearGradient id="paint0_linear_436_523" x1="7.08005" y1="6.38211" x2="23.5581" y2="34.5424" gradientUnits="userSpaceOnUse">
<stop stop-color="#4170EE"/>
<stop offset="1" stop-color="#2548A9"/>
</linearGradient>
<linearGradient id="paint1_linear_436_523" x1="7.08005" y1="6.38211" x2="23.5581" y2="34.5424" gradientUnits="userSpaceOnUse">
<stop stop-color="#FFDB1D"/>
<stop offset="1" stop-color="#E4A80D"/>
</linearGradient>
<linearGradient id="paint2_linear_436_523" x1="4.58103" y1="2.29703" x2="21.0591" y2="30.4574" gradientUnits="userSpaceOnUse">
<stop stop-color="#4170EE"/>
<stop offset="1" stop-color="#2548A9"/>
</linearGradient>
<clipPath id="clip0_436_523">
<rect width="189" height="32" fill="white"/>
</clipPath>
</defs>
</svg>
