<svg width="25" height="24" viewBox="0 0 25 24" fill="none" xmlns="http://www.w3.org/2000/svg">
<path fill-rule="evenodd" clip-rule="evenodd" d="M15.8312 16.1522L16.2179 15.7074C17.0209 14.6868 17.5 13.3994 17.5 12C17.5 8.68629 14.8137 6 11.5 6C8.18629 6 5.5 8.68629 5.5 12C5.5 15.3137 8.18629 18 11.5 18C13.2024 18 14.7391 17.291 15.8312 16.1522ZM18.2252 16.3344L21.8981 19.5271L20.5133 21.1201L16.8569 17.9417C15.4388 19.2211 13.5604 20 11.5 20C7.08172 20 3.5 16.4183 3.5 12C3.5 7.58172 7.08172 4 11.5 4C15.9183 4 19.5 7.58172 19.5 12C19.5 13.5974 19.0318 15.0854 18.2252 16.3344Z" fill="white"/>
</svg>
