<svg width="145" height="55" viewBox="0 0 145 55" fill="none" xmlns="http://www.w3.org/2000/svg">
<path d="M143.488 12.3696C142.039 8.70094 139.609 5.57061 136.503 3.37067C133.396 1.17072 129.752 -0.00107301 126.025 0.00195899L96.4914 0.00195899C96.3096 0.00509376 96.1361 0.0833078 96.0077 0.220159L93.1484 3.13099C93.0958 3.18407 93.059 3.25298 93.0431 3.32868C93.0272 3.40443 93.0337 3.48342 93.0604 3.55547C93.0871 3.62757 93.1337 3.68928 93.1939 3.73266C93.2545 3.77603 93.3252 3.79905 93.3977 3.7987H126.025C129.07 3.79936 132.047 4.76473 134.578 6.57267C137.11 8.38062 139.083 10.95 140.249 13.9561C141.414 16.9622 141.719 20.2699 141.125 23.4613C140.532 26.6526 139.066 29.5842 136.913 31.8855C135.487 33.4179 133.79 34.6327 131.92 35.4597C130.052 36.2867 128.048 36.7094 126.025 36.7034H60.4946C60.0387 36.7051 59.6 36.8932 59.2696 37.2293L46.3701 50.3891C46.3113 50.4469 46.2644 50.5171 46.2319 50.5949C46.1998 50.6732 46.1829 50.7576 46.1821 50.8428V54.5066C46.1825 54.6007 46.2085 54.6932 46.2572 54.7718C46.3058 54.8504 46.3751 54.9125 46.4563 54.9495C46.5374 54.9872 46.6269 54.9984 46.7138 54.9818C46.8007 54.9657 46.8815 54.9225 46.9457 54.8577L61.199 40.5045H126.025C129.152 40.503 132.231 39.6747 134.986 38.0938C137.741 36.5128 140.087 34.228 141.816 31.4432C143.544 28.6583 144.601 25.4597 144.892 22.1326C145.184 18.8054 144.7 15.453 143.484 12.374L143.488 12.3696Z" fill="black"/>
<path d="M20.8815 30.1141C20.845 30.1167 20.8084 30.1109 20.7741 30.0971C20.7398 30.0832 20.7087 30.0618 20.6827 30.0341C20.6568 30.0065 20.6367 29.9732 20.6239 29.9366C20.6109 29.8999 20.6055 29.8607 20.6079 29.8217V22.2218L15.1251 10.5895C15.1081 10.5572 15.0999 10.5205 15.1016 10.4835C15.1033 10.4466 15.1147 10.4108 15.1346 10.3805C15.1544 10.3502 15.1819 10.3265 15.2138 10.312C15.2457 10.2977 15.2808 10.2932 15.315 10.2992H18.862C18.9503 10.2938 19.0378 10.3192 19.1115 10.3716C19.1852 10.4239 19.2409 10.5003 19.2704 10.5895L22.6254 17.8185H22.7071L26.0642 10.5895C26.0937 10.5003 26.1494 10.4239 26.2231 10.3716C26.2968 10.3192 26.3843 10.2938 26.4726 10.2992H29.9093C30.1013 10.2992 30.183 10.4432 30.1013 10.5895L24.6185 22.2218V29.8304C24.6208 29.8692 24.6154 29.9083 24.6027 29.9447C24.5899 29.9812 24.57 30.0144 24.5443 30.042C24.5187 30.0697 24.4878 30.0912 24.4537 30.1051C24.4197 30.119 24.3832 30.1251 24.3469 30.1229L20.8815 30.1141Z" fill="black"/>
<path d="M41.0772 24.4651C41.2936 23.7691 41.3751 22.8046 41.3751 20.2102C41.3751 17.6159 41.2813 16.6536 41.0772 15.9531C40.6685 14.5828 39.6845 13.7711 38.157 13.7711C36.6294 13.7711 35.6473 14.5872 35.2369 15.9531C35.0183 16.6536 34.9366 17.6159 34.9366 20.2102C34.9366 22.8046 35.0183 23.7691 35.2369 24.4651C35.6453 25.8377 36.6294 26.6471 38.157 26.6471C39.6845 26.6471 40.6562 25.8377 41.0772 24.4651ZM31.3795 25.6347C30.9711 24.2623 30.8608 23.1559 30.8608 20.2102C30.8608 17.2645 30.9711 16.1582 31.3795 14.7879C32.3351 11.5804 34.8999 9.98755 38.1469 9.98755C41.3935 9.98755 43.9584 11.5891 44.9121 14.7879C45.3204 16.1582 45.4308 17.2667 45.4308 20.2102C45.4308 23.1538 45.3226 24.2623 44.9121 25.6347C43.9584 28.8423 41.3935 30.4352 38.1469 30.4352C34.8999 30.4352 32.3351 28.8423 31.3795 25.6347Z" fill="black"/>
<path d="M64.2621 27.4515C64.199 27.3883 64.1611 27.3016 64.1564 27.2095C64.1513 27.1173 64.1798 27.0266 64.2357 26.9562L66.5431 24.6192C66.5676 24.5878 66.5979 24.5621 66.6322 24.5435C66.6658 24.5249 66.7033 24.5138 66.7411 24.511C66.7794 24.5081 66.8176 24.5135 66.8537 24.5269C66.8897 24.5403 66.9229 24.5613 66.9514 24.5887C67.0088 24.6389 67.1559 24.7676 67.2086 24.8069C68.4177 25.8019 70.0188 26.703 71.8912 26.703C73.8292 26.703 74.9196 25.7408 74.9196 24.3399C74.9196 23.1747 74.266 22.4459 72.0607 22.1252L71.0782 21.9812C67.3132 21.4247 65.214 19.5308 65.214 16.0308C65.214 12.3868 67.7785 9.96924 71.7891 9.96924C74.2148 9.96924 76.4857 10.7351 78.036 11.9941L78.3541 12.245C78.5359 12.4 78.5096 12.52 78.3743 12.6814L76.1041 14.9704C75.9959 15.1187 75.7813 15.0119 75.7586 14.9966C74.4582 14.1543 73.1918 13.7092 71.7851 13.7092C70.1515 13.7092 69.3017 14.6104 69.3017 15.865C69.3017 17.0018 70.0653 17.7306 72.1934 18.047L73.1756 18.191C76.9961 18.7452 79.016 20.6109 79.016 24.1981C79.016 27.7853 76.5304 30.4365 71.7299 30.4365C68.9179 30.4365 66.1821 29.2778 64.7032 27.8465C64.6621 27.8137 64.3028 27.4951 64.2621 27.4515Z" fill="black"/>
<path d="M115.683 10.5896C115.68 10.5509 115.685 10.512 115.698 10.4756C115.711 10.4393 115.731 10.4062 115.756 10.3787C115.782 10.3512 115.813 10.33 115.847 10.3163C115.882 10.3026 115.918 10.2968 115.954 10.2994H119.221C119.318 10.2947 119.414 10.3194 119.498 10.3708C119.582 10.4222 119.65 10.4982 119.695 10.5896L126.242 23.0686H126.379V10.5896C126.376 10.5508 126.382 10.5118 126.395 10.4755C126.408 10.4391 126.428 10.4061 126.454 10.3787C126.48 10.3512 126.511 10.33 126.545 10.3163C126.579 10.3027 126.616 10.2969 126.652 10.2994H129.736C129.772 10.2968 129.808 10.3026 129.842 10.3163C129.877 10.33 129.907 10.3512 129.933 10.3787C129.959 10.4062 129.978 10.4393 129.991 10.4756C130.004 10.512 130.01 10.5509 130.007 10.5896V29.8306C130.01 29.8694 130.004 29.9084 129.991 29.9449C129.978 29.9814 129.959 30.0146 129.933 30.0422C129.907 30.0699 129.877 30.0913 129.842 30.1053C129.808 30.1192 129.772 30.1252 129.736 30.123H126.489C126.393 30.1297 126.297 30.1053 126.215 30.0532C126.132 30.001 126.066 29.9234 126.025 29.8306L119.45 17.3932H119.313V29.8306C119.315 29.8696 119.31 29.9088 119.297 29.9454C119.284 29.9821 119.264 30.0154 119.238 30.043C119.212 30.0707 119.181 30.0922 119.147 30.106C119.113 30.1198 119.076 30.1256 119.039 30.123H115.956C115.92 30.1252 115.883 30.1192 115.849 30.1053C115.815 30.0913 115.784 30.0699 115.758 30.0422C115.733 30.0146 115.713 29.9814 115.7 29.9449C115.687 29.9084 115.682 29.8694 115.684 29.8306L115.683 10.5896Z" fill="black"/>
<path d="M48.0322 22.8351V10.5896C48.0296 10.5509 48.035 10.512 48.048 10.4756C48.0607 10.4393 48.0809 10.4062 48.1065 10.3787C48.1321 10.3512 48.1631 10.33 48.197 10.3163C48.2313 10.3026 48.2673 10.2968 48.3038 10.2994H51.7751C51.8119 10.2969 51.8483 10.3027 51.8819 10.3163C51.9161 10.33 51.9475 10.3512 51.9735 10.3787C51.9995 10.4061 52.0189 10.4391 52.0326 10.4755C52.0456 10.5118 52.0507 10.5508 52.0489 10.5896V22.9507C52.0489 25.3139 53.2742 26.6601 55.1592 26.6601C57.0438 26.6601 58.2424 25.3182 58.2424 22.9507V10.5896C58.2399 10.5509 58.2453 10.512 58.2583 10.4756C58.2713 10.4393 58.2907 10.4062 58.3163 10.3787C58.3423 10.3512 58.373 10.33 58.4072 10.3163C58.4415 10.3026 58.4776 10.2968 58.514 10.2994H61.9853C62.0218 10.2969 62.0586 10.3027 62.0921 10.3163C62.1264 10.33 62.1574 10.3512 62.1834 10.3787C62.2093 10.4061 62.2292 10.4391 62.2425 10.4755C62.2555 10.5118 62.2609 10.5508 62.2591 10.5896V22.8351C62.2591 27.7621 59.3122 30.4438 55.1649 30.4438C51.0176 30.4438 48.0322 27.7621 48.0322 22.8351Z" fill="black"/>
<path d="M107.035 22.7191L104.931 15.7802H104.852L102.746 22.7191H107.035ZM102.85 10.5892C102.869 10.5045 102.915 10.4293 102.979 10.3764C103.044 10.3235 103.124 10.2961 103.206 10.299H106.642C106.724 10.2961 106.804 10.3235 106.869 10.3764C106.933 10.4293 106.979 10.5045 106.997 10.5892L113.272 29.8302C113.328 30.007 113.272 30.1226 113.081 30.1226H109.534C109.451 30.1304 109.369 30.1046 109.303 30.0504C109.238 29.9962 109.194 29.9176 109.18 29.8302L108.117 26.363H101.623L100.586 29.8302C100.573 29.9178 100.529 29.9968 100.463 30.0511C100.398 30.1054 100.315 30.1309 100.232 30.1226H96.6569C96.4669 30.1226 96.4117 30.007 96.4669 29.8302L102.85 10.5892Z" fill="black"/>
<path d="M81.3782 20.2095C81.3782 17.1547 81.4886 16.1291 81.8972 14.8461C82.8794 11.608 85.2521 9.97803 88.499 9.97803C91.6375 9.97803 93.9286 11.608 94.966 14.3791C94.9876 14.4097 95.0017 14.4457 95.0064 14.4838C95.0111 14.5219 95.006 14.5606 94.9923 14.5961C94.9786 14.6315 94.9559 14.6624 94.9274 14.6855C94.8985 14.7088 94.865 14.7235 94.8293 14.7283L91.8557 16.1487C91.8225 16.1707 91.7854 16.1843 91.7468 16.1887C91.7082 16.1931 91.6688 16.188 91.632 16.174C91.5956 16.1599 91.5621 16.1372 91.535 16.1075C91.5076 16.0779 91.4871 16.042 91.4741 16.0026C90.9554 14.7196 90.0818 13.7573 88.5272 13.7573C87.0815 13.7573 86.1524 14.5734 85.744 15.9393C85.5258 16.6681 85.444 17.3685 85.444 20.1964C85.444 23.0243 85.5258 23.7226 85.744 24.4513C86.1524 25.8238 87.0815 26.6333 88.5272 26.6333C90.0818 26.6333 90.9554 25.6689 91.4741 24.3859C91.4871 24.3467 91.508 24.3111 91.5354 24.2816C91.5628 24.2522 91.596 24.2297 91.6328 24.2157C91.6692 24.2017 91.7082 24.1965 91.7468 24.2007C91.7854 24.2049 91.8225 24.2182 91.8557 24.2397L94.8293 25.6689C94.865 25.6734 94.8996 25.6881 94.9285 25.7115C94.9573 25.7348 94.98 25.766 94.9937 25.8017C95.0078 25.8375 95.0125 25.8766 95.0078 25.915C95.0024 25.9534 94.9887 25.9897 94.966 26.0202C93.9286 28.7869 91.6375 30.4213 88.499 30.4213C85.2521 30.4213 82.8794 28.7869 81.8972 25.5532C81.4886 24.2921 81.3782 23.2709 81.3782 20.2095Z" fill="black"/>
<path d="M53.9374 36.7034H50.0578C49.6015 36.7046 49.1629 36.893 48.8325 37.2293L39.3779 46.8694C39.3711 46.8767 39.3621 46.8818 39.3527 46.8837C39.3433 46.8856 39.3332 46.8848 39.3242 46.881C39.3152 46.8767 39.3076 46.8702 39.3022 46.8613C39.2968 46.8528 39.2939 46.8428 39.2939 46.8324V38.6017C39.2935 38.0984 39.1063 37.6159 38.773 37.2601C38.4401 36.9042 37.9885 36.704 37.5175 36.7034H18.978C15.9329 36.7027 12.9565 35.7374 10.4248 33.9294C7.89311 32.1214 5.91992 29.5521 4.75458 26.546C3.58922 23.5399 3.28412 20.2322 3.87776 17.0408C4.47143 13.8495 5.93727 10.9179 8.0899 8.61656C9.51656 7.08419 11.2134 5.86941 13.0824 5.04237C14.9513 4.2154 16.9551 3.79268 18.978 3.79869L86.9772 3.79869C87.0999 3.79864 87.2178 3.74777 87.3062 3.65681L90.2855 0.608566C90.3328 0.560723 90.366 0.498898 90.3804 0.430959C90.3948 0.363022 90.3898 0.292002 90.3663 0.226993C90.3432 0.161985 90.3018 0.10587 90.2484 0.0657856C90.1957 0.0257014 90.1322 0.00349762 90.0666 0.00195593L18.978 0.00195593C15.2291 -0.000151055 11.5639 1.18619 8.44631 3.4108C5.3287 5.63546 2.8988 8.7984 1.46414 12.4993C0.0295344 16.2002 -0.345348 20.2728 0.387011 24.2014C1.11932 28.1301 2.92593 31.7383 5.57819 34.5694C7.33651 36.4516 9.42534 37.9444 11.7247 38.9621C14.0242 39.98 16.4891 40.5026 18.978 40.4999H35.6898C35.6963 40.4999 35.7027 40.5014 35.7086 40.5041C35.7146 40.5068 35.72 40.5107 35.7245 40.5153C35.7291 40.5203 35.7327 40.5261 35.7351 40.5323C35.7376 40.5388 35.7389 40.5454 35.7389 40.5523V54.502C35.7392 54.5964 35.7653 54.6885 35.814 54.7675C35.8627 54.8461 35.9318 54.9078 36.0129 54.9456C36.0941 54.9826 36.1836 54.9938 36.2705 54.9772C36.3575 54.9614 36.4383 54.9182 36.5025 54.8535L54.0886 37.1311C54.121 37.0973 54.1441 37.0541 54.1542 37.0066C54.164 36.9591 54.1611 36.9095 54.1448 36.864C54.129 36.8185 54.1005 36.7791 54.0633 36.7505C54.0269 36.722 53.9825 36.7056 53.9374 36.7034Z" fill="black"/>
</svg>
