<svg width="164" height="33" viewBox="0 0 164 33" fill="none" xmlns="http://www.w3.org/2000/svg">
<path d="M7.46999 28.8631C4.61781 30.3382 2.17309 30.9796 0 31.3645L0 32.6473H31.5097C31.5097 23.6677 31.5776 5.51612 31.5097 5.3237C31.4418 5.13128 25.6017 4.74644 20.0331 14.7523C18.8787 17.0613 16.5698 20.7173 16.5698 20.7173C15.7548 21.8077 14.6004 23.6677 12.9027 25.2712C12.4273 25.6561 10.6617 27.1954 7.46999 28.8631Z" fill="black"/>
<path d="M15.0082 17.7026C9.57553 25.1428 1.83387 27.516 0.0682373 27.8367L0.0682373 3.14282H31.578V4.04078C30.831 4.16906 28.6579 4.2332 25.9416 5.516C24.7871 6.09326 20.1693 9.42852 17.6567 13.79C17.1813 14.4315 15.4157 17.1253 15.0082 17.7026Z" fill="black"/>
<path d="M93.239 12.3149V14.1749H97.6527V19.4344H93.239V32.1982H86.7196V19.4344H84.4785V14.1749H86.7196C86.7196 12.7639 86.7196 12.7639 86.7196 12.7639C86.9913 7.44022 91.8129 3.14286 97.4495 3.14286V8.46645C95.2084 8.46645 93.3744 10.1983 93.239 12.3149ZM120.131 23.0263V3.91253H113.611V22.5131C113.883 28.0933 118.772 32.1341 124.613 32.1341V26.8105C122.1 26.4898 120.402 25.5277 120.131 23.0263ZM133.848 14.1749H140.368C142.065 14.1749 142.065 14.1749 142.065 14.1749C147.634 14.1749 152.591 18.4723 152.456 23.7959V32.1341H145.936V23.2828C145.936 21.7434 143.967 19.5627 141.59 19.4344C140.232 19.4344 140.232 19.4344 140.232 19.4344V32.0699H133.713V14.0466H133.848V14.1749ZM132.491 14.1749V32.1982H125.971V14.1749H132.491ZM164 13.4694C158.431 13.4694 154.017 17.6385 154.017 22.898C154.017 27.9009 158.431 32.4548 164 32.3265V27.0029C162.778 27.0029 161.419 26.4257 160.672 25.7201H164V20.3965H160.672C161.419 19.4344 162.778 18.8571 164 18.8571V13.4694ZM107.839 19.3703H112.254V14.0466H107.839V3.91253H101.32V14.1108H99.0788V19.3703C99.0788 19.3703 99.0788 19.3703 101.32 19.3703C101.32 19.3703 101.32 19.3703 101.32 22.3848C101.456 24.9504 102.543 27.2595 104.376 28.9912C106.481 31.1079 109.333 32.0058 112.254 32.0058V26.6822C112.254 26.6822 112.254 26.6822 111.982 26.6822C109.741 26.6822 107.907 25.0787 107.772 22.9621L107.839 19.3703ZM73.8171 32.1982C79.2498 32.1982 83.7997 28.0291 83.7997 22.7697C83.7997 17.5102 79.3852 13.3411 73.8171 13.3411C68.3843 13.3411 63.8343 17.5102 63.8343 22.7697C63.8343 27.965 68.3164 32.1982 73.8171 32.1982ZM73.8171 26.9388C71.4405 26.9388 69.4708 25.0787 69.4708 22.898C69.4708 20.7172 71.4405 18.8571 73.8171 18.8571C76.1937 18.8571 78.1631 20.7172 78.1631 22.898C78.1631 25.0787 76.1937 26.9388 73.8171 26.9388ZM50.2526 18.4723C45.8385 17.4461 42.5789 13.726 42.5789 9.42857C42.5789 4.1691 46.993 0 52.5615 0C58.13 0 62.5441 4.1691 62.5441 9.42857H56.8397C56.8397 7.24781 54.8704 5.38776 52.4936 5.38776C50.1167 5.38776 48.1474 7.24781 48.1474 9.42857C48.1474 10.5831 48.6228 11.6093 49.5056 12.4432C50.9996 13.726 52.6973 13.3411 54.5988 13.726C59.1486 14.6239 62.4762 18.344 62.4762 22.898C62.4762 28.1574 58.0621 32.3265 52.4936 32.3265C46.9251 32.3265 42.511 28.0291 42.511 22.898H48.2153C48.2153 25.0787 50.1847 26.9388 52.5615 26.9388C54.9383 26.9388 56.9077 25.0787 56.9077 22.898C56.9077 21.6151 56.2965 20.4607 55.2099 19.6269C53.5801 18.6006 51.9503 18.9213 50.2526 18.4723Z" fill="black"/>
</svg>
