<svg width="162" height="52" viewBox="0 0 162 52" fill="none" xmlns="http://www.w3.org/2000/svg">
<path d="M79.4957 18.9092C77.4129 18.9092 75.6772 19.6183 74.4043 21.0365L73.71 19.2637H69.4286V34.9819H74.8672V26.591C74.8672 24.7001 76.0243 23.5183 77.76 23.5183C79.1486 23.5183 80.19 24.5819 80.19 26.0001V34.9819H85.6286V25.0546C85.6286 23.2819 85.05 21.7455 83.8929 20.6819C82.8515 19.5001 81.3472 18.9092 79.4957 18.9092Z" fill="black"/>
<path d="M66.42 12.0544H60.9814V17.609H66.42V12.0544Z" fill="black"/>
<path d="M66.42 19.3818H60.9814V35.1H66.42V19.3818Z" fill="black"/>
<path d="M160.033 21.2728C158.644 19.7365 157.024 18.9092 154.941 18.9092C153.09 18.9092 151.586 19.5001 150.313 20.8001L149.619 19.3819H145.221V41.7183H150.66V34.0365C151.933 34.9819 153.206 35.5728 154.826 35.5728C156.909 35.5728 158.644 34.7455 159.917 33.3274C161.306 31.791 161.884 29.7819 161.884 27.4183C162 24.8183 161.306 22.8092 160.033 21.2728ZM153.437 31.0819C151.817 31.0819 150.66 29.7819 150.66 28.0092V26.3546C150.66 24.5819 151.817 23.2819 153.437 23.2819C155.173 23.2819 156.446 24.8183 156.446 27.1819C156.446 29.4274 155.173 31.0819 153.437 31.0819Z" fill="black"/>
<path d="M139.551 11.9363C137.816 11.9363 136.427 13.2363 136.427 15.1272C136.427 16.8999 137.816 18.3181 139.551 18.3181C141.403 18.3181 142.676 16.8999 142.676 15.1272C142.676 13.3545 141.403 11.9363 139.551 11.9363Z" fill="black"/>
<path d="M142.213 19.3818H136.774V35.1H142.213V19.3818Z" fill="black"/>
<path d="M113.978 21.2728C112.358 19.7365 110.276 18.9092 107.614 18.9092C105.068 18.9092 102.986 19.6183 101.25 21.2728C99.6298 22.8092 98.8198 24.8183 98.8198 27.1819C98.8198 29.5455 99.6298 31.5546 101.25 33.091C102.986 34.6274 105.068 35.4546 107.614 35.4546C110.16 35.4546 112.358 34.6274 113.978 33.2092C115.598 31.6728 116.409 29.6637 116.409 27.3001C116.409 24.8183 115.598 22.8092 113.978 21.2728ZM107.614 31.0819C105.763 31.0819 104.49 29.4274 104.49 27.1819C104.49 24.8183 105.763 23.2819 107.614 23.2819C109.466 23.2819 110.854 24.9365 110.854 27.1819C110.854 29.5455 109.466 31.0819 107.614 31.0819Z" fill="black"/>
<path d="M96.6214 16.7819C97.0842 16.7819 97.6628 16.9001 98.4728 17.0183L99.1671 12.8819C97.8942 12.5274 96.6214 12.4092 95.3485 12.4092C93.6128 12.4092 92.2242 12.8819 91.1828 13.9455C90.1414 15.0092 89.5628 16.3092 89.5628 17.9637V19.3819H87.0171V23.6365H89.5628V35.1001H95.0014V23.6365H98.1257V19.3819H95.0014V18.4365C95.0014 17.3728 95.58 16.7819 96.6214 16.7819Z" fill="black"/>
<path d="M132.724 21.2728C131.336 19.7364 129.716 18.9091 127.633 18.9091C126.013 18.9091 124.624 19.3819 123.467 20.4455V12.6455H118.029V34.9819H122.426L123.12 33.5637C124.277 34.7455 125.781 35.4546 127.633 35.4546C129.716 35.4546 131.451 34.6273 132.724 33.2091C134.113 31.6728 134.807 29.6637 134.807 27.3001C134.807 24.8182 134.113 22.8091 132.724 21.2728ZM126.244 31.0819C124.624 31.0819 123.467 29.7819 123.467 28.0091V26.3546C123.467 24.5819 124.624 23.2819 126.244 23.2819C127.98 23.2819 129.253 24.8182 129.253 27.1819C129.253 29.4273 127.98 31.0819 126.244 31.0819Z" fill="black"/>
<path d="M29.9699 22.1001V29.0728C29.9699 29.9001 29.2756 30.491 28.5813 30.491H21.7542C20.9442 30.491 20.3656 29.7819 20.3656 29.0728V22.1001C20.3656 21.2728 21.0599 20.6819 21.7542 20.6819H28.5813C29.3913 20.6819 29.9699 21.2728 29.9699 22.1001Z" fill="black"/>
<path d="M36.9129 13.5908C34.9458 11.5817 30.3172 10.2817 25.1101 10.2817C19.9029 10.2817 15.2743 11.5817 13.3072 13.5908C11.34 15.5999 10.0671 20.3272 10.0671 25.6454C10.0671 30.9636 11.34 35.6908 13.3072 37.6999C15.2743 39.709 19.9029 41.009 25.1101 41.009C30.3172 41.009 34.9458 39.709 36.9129 37.6999C37.8386 36.7545 38.6486 34.9817 39.2272 32.9726C39.8058 30.8454 40.1529 28.3636 40.1529 25.7636C40.0372 20.3272 38.8801 15.5999 36.9129 13.5908ZM32.2843 32.9726C31.8215 33.4454 30.6643 34.6272 24.9943 34.6272C19.3243 34.6272 18.1672 33.3272 17.7043 32.9726C17.3572 32.4999 16.2001 31.3181 16.2001 25.5272C16.2001 19.7363 17.4729 18.5545 17.8201 18.0817C18.1672 17.609 19.4401 16.4272 25.1101 16.4272C30.7801 16.4272 31.9372 17.7272 32.4001 18.0817C32.7472 18.5545 34.0201 19.7363 34.0201 25.5272C34.0201 31.3181 32.7472 32.4999 32.2843 32.9726Z" fill="black"/>
<path d="M29.9699 22.1001V29.0728C29.9699 29.9001 29.2756 30.491 28.5813 30.491H21.7542C20.9442 30.491 20.3656 29.7819 20.3656 29.0728V22.1001C20.3656 21.2728 21.0599 20.6819 21.7542 20.6819H28.5813C29.3913 20.6819 29.9699 21.2728 29.9699 22.1001Z" fill="black"/>
<path d="M29.9701 22.1001V29.0728C29.9701 29.9001 29.2758 30.491 28.5816 30.491H21.7544C20.9444 30.491 20.3658 29.7819 20.3658 29.0728V22.1001C20.3658 21.2728 21.0601 20.6819 21.7544 20.6819H28.5816C29.3916 20.6819 29.9701 21.2728 29.9701 22.1001Z" fill="black"/>
<path d="M29.9701 22.1001V29.0728C29.9701 29.9001 29.2758 30.491 28.5816 30.491H21.7544C20.9444 30.491 20.3658 29.7819 20.3658 29.0728V22.1001C20.3658 21.2728 21.0601 20.6819 21.7544 20.6819H28.5816C29.3916 20.6819 29.9701 21.2728 29.9701 22.1001Z" fill="black"/>
<path d="M36.9129 13.5908C34.9458 11.5817 30.3172 10.2817 25.1101 10.2817C19.9029 10.2817 15.2743 11.5817 13.3072 13.5908C11.34 15.5999 10.0671 20.3272 10.0671 25.6454C10.0671 30.9636 11.34 35.6908 13.3072 37.6999C15.2743 39.709 19.9029 41.009 25.1101 41.009C30.3172 41.009 34.9458 39.709 36.9129 37.6999C37.8386 36.7545 38.6486 34.9817 39.2272 32.9726C39.8058 30.8454 40.1529 28.3636 40.1529 25.7636C40.0372 20.3272 38.8801 15.5999 36.9129 13.5908ZM32.2843 32.9726C31.8215 33.4454 30.6643 34.6272 24.9943 34.6272C19.3243 34.6272 18.1672 33.3272 17.7043 32.9726C17.3572 32.4999 16.2001 31.3181 16.2001 25.5272C16.2001 19.7363 17.4729 18.5545 17.8201 18.0817C18.1672 17.609 19.4401 16.4272 25.1101 16.4272C30.7801 16.4272 31.9372 17.7272 32.4001 18.0817C32.7472 18.5545 34.0201 19.7363 34.0201 25.5272C34.0201 31.3181 32.7472 32.4999 32.2843 32.9726Z" fill="black"/>
<path d="M25.11 0C11.2243 0 0 11.4636 0 25.6455C0 39.7091 11.1086 51.0545 24.7629 51.2909C38.7643 51.5273 50.4514 39.5909 50.22 25.2909C49.9886 11.3455 38.88 0 25.11 0ZM39.4586 40.4182C36.6814 43.2545 31.3586 44.9091 25.11 44.9091C18.8614 44.9091 13.4229 43.2545 10.7614 40.4182C7.98429 37.5818 6.36429 32.1455 6.36429 25.7636C6.36429 19.3818 7.98429 13.9455 10.7614 11.1091C13.5386 8.27273 18.8614 6.61818 25.11 6.61818C31.3586 6.61818 36.6814 8.27273 39.4586 11.1091C42.2357 13.9455 43.8557 19.3818 43.8557 25.7636C43.8557 32.1455 42.2357 37.5818 39.4586 40.4182Z" fill="black"/>
</svg>
