<svg width="131" height="36" viewBox="0 0 131 36" fill="none" xmlns="http://www.w3.org/2000/svg">
<path d="M107.772 7.94873C100.312 7.94873 94.2588 14.0333 94.2588 21.5315C94.2588 29.0297 100.312 35.1143 107.772 35.1143C115.23 35.1143 121.283 29.0297 121.283 21.5315C121.283 14.0333 115.23 7.94873 107.772 7.94873ZM107.772 29.7262C103.389 29.7262 99.823 26.059 99.823 21.5315C99.823 17.0039 103.369 13.3367 107.772 13.3367C112.174 13.3367 115.719 17.0039 115.719 21.5315C115.699 26.059 112.153 29.7262 107.772 29.7262Z" fill="black"/>
<path d="M90.917 8.35864H85.3531V34.7251H90.917V8.35864Z" fill="black"/>
<path d="M13.288 13.3573C16.4265 13.3573 18.8926 15.0372 19.9728 17.9463H25.8831C24.3138 11.7797 19.6671 7.94873 13.4103 7.94873C5.78802 7.94873 0 14.0333 0 21.552C0 29.0706 5.78802 35.1347 13.4103 35.1347C19.6671 35.1347 24.3138 31.3037 25.8831 25.1371H19.9728C18.8926 28.0463 16.4062 29.7262 13.288 29.7262C8.74317 29.7262 5.58422 26.059 5.58422 21.5315C5.58422 17.0039 8.74317 13.3573 13.288 13.3573Z" fill="black"/>
<path d="M72.3911 12.2921V8.35866H66.8477V34.7456H72.3911V23.2936C72.3911 16.4919 76.1004 12.6813 82.1737 13.972V8.35866C78.383 7.12945 74.1234 9.32154 72.3911 12.2921Z" fill="black"/>
<path d="M34.6464 28.0669V0L29.0825 0V28.5995C29.0825 31.5702 30.3665 34.7251 34.891 34.7251H37.0921V30.2591H36.2769C35.1966 30.1565 34.6464 29.6444 34.6464 28.0669Z" fill="black"/>
<path d="M61.182 28.0668V17.598C61.182 12.5172 58.3492 7.94873 50.5435 7.94873C44.3478 7.94873 40.2921 12.3944 39.7622 16.758H45.2854C45.8152 14.525 47.629 12.7017 50.4823 12.7017C53.8043 12.7017 55.6182 14.4635 55.6182 16.758C55.6182 17.639 55.2105 18.7658 53.3559 18.7658L48.913 18.8477C42.6767 18.8477 38.8859 21.5929 38.8859 26.8171C38.8859 31.611 42.3709 35.1552 47.9959 35.1552C51.4402 35.1552 54.1711 33.7621 56.1684 31.6725C56.9021 33.4138 58.4714 34.7454 61.4062 34.7454H63.2608V30.2794H62.7921C61.7323 30.1564 61.182 29.6442 61.182 28.0668ZM48.7907 30.3818C45.9375 30.3818 44.572 28.7019 44.572 26.9604C44.572 24.0514 46.9565 23.1909 49.6264 23.1909L52.9483 23.1295C53.947 23.1295 54.8233 23.0065 55.5978 22.6583V23.3548C55.6182 28.3331 52.1739 30.3818 48.7907 30.3818Z" fill="black"/>
<path d="M83.0907 0.0205078C83.0499 0.245863 83.0499 0.491705 83.0499 0.737546C83.0499 3.58521 85.3325 5.87974 88.1654 5.87974C90.9982 5.87974 93.2809 3.58521 93.2809 0.737546C93.2809 0.491705 93.2605 0.245863 93.2401 0.0205078L83.0907 0.0205078Z" fill="black"/>
<path d="M130.272 34.7458C130.312 34.5204 130.312 34.2745 130.312 34.0287C130.312 31.181 128.029 28.8865 125.197 28.8865C122.364 28.8865 120.082 31.181 120.082 34.0287C120.082 34.2745 120.102 34.5204 120.122 34.7458H130.272Z" fill="black"/>
</svg>
