<svg width="196" height="41" viewBox="0 0 196 41" fill="none" xmlns="http://www.w3.org/2000/svg">
<path d="M91.7132 32.5071H24.1117L29.5849 37.7785L91.7132 32.5071Z" fill="black"/>
<path d="M30.4724 10.8355V11.7141C29.289 10.982 28.1056 10.3962 26.4785 10.3962C21.7449 10.3962 18.1947 14.6427 18.1947 19.9141C18.1947 25.1855 21.7449 29.432 26.4785 29.432C27.9577 29.432 29.1411 28.9927 30.4724 28.1141V28.9927H34.6143V10.8355H30.4724ZM26.4785 25.1855C24.1117 25.1855 22.4845 22.8427 22.4845 20.0605C22.4845 17.132 24.2596 14.9355 26.4785 14.9355C28.8453 14.9355 30.4724 17.2784 30.4724 20.0605C30.4724 22.8427 28.8453 25.1855 26.4785 25.1855Z" fill="black"/>
<path d="M63.7555 10.8357V21.525C63.7555 23.575 62.4242 25.1857 60.3532 25.1857C58.2823 25.1857 56.951 23.4286 56.951 21.525V10.8357H52.8091V21.525C52.8091 25.9178 55.7676 29.4321 60.2053 29.4321C62.2763 29.4321 63.7555 28.2607 63.7555 28.2607V28.9928H67.8974V10.8357H63.7555Z" fill="black"/>
<path d="M102.512 28.9927V18.3034C102.512 16.2534 103.843 14.6427 105.914 14.6427C107.985 14.6427 109.316 16.3998 109.316 18.3034V28.9927H113.458V18.3034C113.458 13.9105 110.5 10.3962 106.062 10.3962C103.991 10.3962 102.512 11.5677 102.512 11.5677V10.8355H98.3698V28.9927H102.512Z" fill="black"/>
<path d="M6.21282 28.9928V21.9642H9.31924L14.6445 28.9928H19.9698L13.609 20.5C15.68 19.0357 16.8634 16.6928 16.8634 14.0571C16.8634 9.81067 13.3132 6.29639 9.02339 6.29639H1.77509L1.77509 28.9928H6.21282ZM6.21282 10.6892H9.02339C10.9464 10.6892 12.5736 12.3 12.5736 14.2035C12.5736 16.1071 10.9464 17.7178 9.02339 17.7178H6.21282V10.6892Z" fill="black"/>
<path d="M79.1396 24.7462C78.6959 25.0391 78.2521 25.1855 77.8083 25.1855C77.0687 25.1855 75.8853 24.5998 75.8853 22.9891V15.2283H79.4355V10.8355H75.8853V6.44263H71.7434V10.9819H69.5245V15.2283H71.7434V23.1355C71.7434 27.2355 74.8498 29.5783 77.9562 29.5783C79.1396 29.5783 80.7668 29.1391 82.0981 28.4069L79.1396 24.7462Z" fill="black"/>
<path d="M44.9691 19.4749L52.0695 10.8356H46.3004L41.271 17.2785V4.83203H36.9811V28.9927H41.271V21.6713L47.3359 28.9927H53.2528L44.9691 19.4749Z" fill="black"/>
<path d="M88.7547 10.3962C83.8732 10.3962 80.4709 14.6427 80.4709 19.9141C80.4709 25.4784 84.7608 29.432 89.1985 29.432C91.4174 29.432 94.2279 28.6998 96.5947 25.332L92.8966 23.282C90.086 27.382 85.3525 25.332 84.7608 21.232H96.7427C97.7781 14.7891 93.4883 10.3962 88.7547 10.3962ZM92.4528 17.5712H84.9087C85.7962 13.3248 91.5653 13.1784 92.4528 17.5712Z" fill="black"/>
<path d="M126.328 27.3821L119.227 9.95712C119.079 9.81069 119.079 9.51784 118.931 9.22498C118.931 8.93212 118.783 8.63927 118.783 8.49284C118.783 7.76069 119.079 7.17498 119.523 6.58926C120.115 6.14998 120.706 5.85712 121.446 5.85712C122.038 5.85712 122.481 6.00355 122.925 6.29641C123.221 6.58927 123.665 7.17498 123.961 8.05355L128.694 20.7928L133.28 8.19998C133.576 7.32141 133.872 6.73569 134.315 6.29641C134.759 6.00355 135.203 5.71069 135.943 5.71069C136.682 5.71069 137.422 5.85712 137.866 6.29641C138.309 6.73569 138.605 7.32141 138.605 8.05355C138.605 8.34641 138.605 8.63927 138.457 8.93212C138.457 9.22498 138.309 9.51784 138.161 9.81069L131.357 26.9428C131.061 27.675 130.617 28.2607 130.321 28.5536C129.878 28.8464 129.434 28.9928 128.694 28.9928C128.103 28.9928 127.659 28.8464 127.215 28.5536C126.919 28.5536 126.623 28.1143 126.328 27.3821Z" fill="black"/>
<path d="M144.818 25.9178C144.818 27.0893 144.67 27.9678 144.226 28.5535C143.783 29.1393 143.191 29.4321 142.451 29.4321C141.564 29.4321 140.972 29.1393 140.676 28.5535C140.232 27.9678 140.084 27.0893 140.084 25.9178V16.2535C140.084 15.0821 140.232 14.2035 140.676 13.6178C141.12 13.0321 141.712 12.7393 142.451 12.7393C143.191 12.7393 143.931 13.0321 144.226 13.6178C144.67 14.2035 144.818 15.0821 144.818 16.2535V25.9178Z" fill="black"/>
<path d="M152.214 13.032C152.806 12.5928 153.398 12.1535 154.137 12.007C154.877 11.7142 155.469 11.7142 156.356 11.7142C158.575 11.7142 160.498 12.5928 161.977 14.3499C163.457 16.107 164.196 18.3035 164.196 20.7928C164.196 23.282 163.457 25.332 161.829 27.0892C160.202 28.8463 158.427 29.7249 156.208 29.7249C155.321 29.7249 154.581 29.5785 153.842 29.2856C153.102 28.9928 152.51 28.5535 152.066 27.9678C151.771 28.5535 151.327 28.9928 151.031 29.1392C150.587 29.432 150.143 29.5785 149.7 29.5785C148.812 29.5785 148.22 29.2856 147.777 28.6999C147.333 28.1142 147.185 27.2356 147.185 25.9178V9.81062C147.185 8.49276 147.333 7.61419 147.777 7.02847C148.22 6.44276 148.812 6.1499 149.7 6.1499C150.587 6.1499 151.179 6.44276 151.623 7.02847C152.066 7.61419 152.214 8.63919 152.214 9.81062C152.214 9.81062 152.214 13.032 152.214 13.032ZM151.771 20.4999C151.771 21.9642 152.066 22.9892 152.806 23.8678C153.546 24.7463 154.433 25.1856 155.469 25.1856C156.504 25.1856 157.392 24.7463 158.131 23.8678C158.871 22.9892 159.167 21.9642 159.167 20.4999C159.167 19.0356 158.871 18.0106 158.131 17.132C157.392 16.2535 156.504 15.8142 155.469 15.8142C154.433 15.8142 153.546 16.2535 152.806 17.132C152.066 18.0106 151.771 19.182 151.771 20.4999Z" fill="black"/>
<path d="M169.817 21.9642C169.965 22.8428 170.557 23.7214 171.297 24.1607C172.036 24.7464 172.924 24.8928 173.959 24.8928C174.995 24.8928 176.03 24.6 177.214 24.0142C178.397 23.4285 179.137 23.1357 179.432 23.1357C180.024 23.1357 180.468 23.2821 180.912 23.7214C181.355 24.1607 181.503 24.6 181.503 25.1857C181.503 26.2107 180.764 27.2357 179.137 28.1142C177.657 28.9928 175.734 29.4321 173.663 29.4321C171.149 29.4321 169.078 28.5535 167.303 26.9428C165.675 25.1857 164.788 23.1357 164.788 20.5C164.788 17.8642 165.675 15.8142 167.303 14.0571C168.93 12.3 171.001 11.4214 173.515 11.4214C175.882 11.4214 177.805 12.3 179.432 13.9107C181.06 15.5214 181.799 17.5714 181.799 19.9142C181.799 20.6464 181.651 21.2321 181.208 21.525C180.912 21.8178 180.172 21.9642 179.137 21.9642H169.817ZM169.669 18.8892H177.214C177.214 18.0107 176.77 16.9857 176.03 16.4C175.291 15.8142 174.551 15.5214 173.515 15.5214C172.628 15.5214 171.592 15.8142 171.001 16.4C170.261 16.9857 169.817 18.0107 169.669 18.8892Z" fill="black"/>
<path d="M183.278 25.6248V15.3748C183.278 14.0569 183.426 13.1783 183.87 12.5926C184.314 12.0069 184.906 11.7141 185.793 11.7141C186.385 11.7141 186.829 11.8605 187.124 12.1533C187.568 12.4462 187.864 12.8855 188.16 13.3248C188.752 12.7391 189.195 12.2998 189.787 12.0069C190.379 11.7141 190.971 11.5676 191.562 11.5676C192.302 11.5676 192.894 11.8605 193.337 12.2998C193.781 12.7391 194.077 13.3248 194.077 14.0569C194.077 15.0819 193.189 15.9605 191.266 16.5462C190.527 16.8391 190.083 16.9855 189.787 17.1319C189.195 17.4248 188.752 17.7176 188.456 18.1569C188.308 18.5962 188.16 19.1819 188.16 20.2069V25.4783C188.16 26.7962 188.012 27.6748 187.568 28.2605C187.124 28.8462 186.533 29.1391 185.645 29.1391C184.758 29.1391 184.166 28.8462 183.722 28.2605C183.574 27.8212 183.278 26.9426 183.278 25.6248Z" fill="black"/>
<path d="M139.937 8.63913C139.937 7.90699 140.232 7.32128 140.676 6.73556C141.268 6.14985 141.86 6.00342 142.599 6.00342C143.339 6.00342 143.931 6.29628 144.522 6.73556C145.114 7.32128 145.262 7.90699 145.262 8.63913C145.262 9.37128 144.966 9.95699 144.522 10.5427C144.078 10.982 143.339 11.2748 142.599 11.2748C141.86 11.2748 141.268 10.982 140.676 10.5427C140.232 9.95699 139.937 9.37128 139.937 8.63913Z" fill="black"/>
</svg>
