<svg width="126" height="48" viewBox="0 0 126 48" fill="none" xmlns="http://www.w3.org/2000/svg">
<path d="M23.7566 9.29028V39.6387H18.6011V25.999H5.15553V39.6387H0L0 9.29028H5.15553V21.3529H18.6011V9.29028H23.7566Z" fill="black"/>
<path d="M42.0362 22.913C40.9694 21.5404 39.4941 20.8536 37.6103 20.8536C35.7259 20.8536 34.2441 21.5476 33.1637 22.9341C32.0831 24.3216 31.5429 26.2183 31.5429 28.624C31.5429 31.0866 32.0831 33.0118 33.1637 34.3986C34.2441 35.7858 35.7402 36.4792 37.6519 36.4792C39.5078 36.4792 40.9694 35.7786 42.0362 34.3773C43.1024 32.9762 43.6362 31.0441 43.6362 28.5814C43.6362 26.1757 43.1024 24.2865 42.0362 22.913ZM37.6935 17.0322C40.9622 17.0322 43.5667 18.0797 45.5063 20.1744C47.4453 22.2694 48.4153 25.0858 48.4153 28.624C48.4153 32.1906 47.4524 35.0214 45.5271 37.1159C43.6011 39.2112 40.9901 40.258 37.6935 40.258C34.3409 40.258 31.6812 39.2112 29.7143 37.1159C27.7468 35.0214 26.7637 32.1906 26.7637 28.624C26.7637 25.0858 27.7539 22.2694 29.7352 20.1744C31.7157 18.0797 34.3688 17.0322 37.6935 17.0322Z" fill="black"/>
<path d="M55.3317 39.6387H50.821V9.29028H55.3317V39.6387Z" fill="black"/>
<path d="M77.8855 17.6516L69.9206 39.1892C69.8373 39.3881 69.6841 39.8065 69.4619 40.4449C69.2391 41.0833 69.0867 41.5156 69.0032 41.7431C68.92 41.9698 68.7596 42.3671 68.5238 42.9349C68.2873 43.5022 68.0995 43.8992 67.9607 44.1265C67.8213 44.3535 67.6128 44.694 67.3352 45.1483C67.0568 45.6018 66.7996 45.9283 66.5638 46.1273C66.3272 46.3255 66.0353 46.5742 65.6881 46.8721C65.34 47.17 64.9856 47.383 64.6247 47.5106C64.2631 47.6384 63.8532 47.7514 63.3945 47.8511C62.9357 47.9502 62.442 48 61.9141 48C61.0241 48 59.9262 47.915 58.6198 47.7449V43.6585C59.6207 43.8567 60.4546 43.9564 61.1217 43.9564C61.4554 43.9564 61.761 43.9066 62.0392 43.8075C62.3167 43.7079 62.567 43.5374 62.7897 43.2966C63.0119 43.0552 63.2069 42.8284 63.3736 42.6156C63.5404 42.4028 63.7002 42.1049 63.8532 41.7218C64.0057 41.3387 64.1243 41.0409 64.2077 40.828C64.291 40.6151 64.4016 40.2813 64.5412 39.8277C64.68 39.3741 64.7634 39.09 64.7914 38.9764L56.5346 17.6516H61.7473L67.502 33.8261L72.9231 17.6516H77.8855Z" fill="black"/>
<path d="M94.6225 27.593L90.2354 14.8237L85.6415 27.593H94.6225ZM92.967 9.29028L104.348 39.6387H98.8026L95.9881 31.5941H84.3172L81.4201 39.6387H76.0812L87.4625 9.29028H92.967Z" fill="black"/>
<path d="M115.475 9.10911V12.8772C114.544 12.7916 113.84 12.7488 113.362 12.7488C112.375 12.7488 111.714 12.9274 111.376 13.284C111.038 13.6413 110.869 14.3477 110.869 15.4035V17.5445H115.01V21.0985H110.911V39.6388H106.136V21.0985H102.544V17.5445H106.136V15.7888C106.136 13.4768 106.629 11.764 107.615 10.6506C108.601 9.5374 110.262 8.98071 112.601 8.98071C113.558 8.98071 114.516 9.02351 115.475 9.10911Z" fill="black"/>
<path d="M126 9.10911V12.8772C125.092 12.7916 124.404 12.7488 123.936 12.7488C122.973 12.7488 122.327 12.9274 121.996 13.284C121.666 13.6413 121.501 14.3477 121.501 15.4035V17.5445H125.546V21.0985H121.543V39.6388H116.878V21.0985H113.37V17.5445H116.878V15.7888C116.878 13.4768 117.359 11.764 118.323 10.6506C119.286 9.5374 120.909 8.98071 123.193 8.98071C124.129 8.98071 125.064 9.02351 126 9.10911Z" fill="black"/>
<path d="M98.0973 12.5138C98.8177 11.9927 99.551 11.5786 100.145 11.0097C101.625 9.59193 101.499 7.88104 99.9039 6.57163C98.4552 5.38203 96.752 4.7925 94.983 4.41479C92.0907 3.7971 89.1761 3.72053 86.2578 4.25581C84.4394 4.58917 82.673 5.08719 81.1019 6.13196C80.1464 6.76756 79.3156 7.53651 79.2599 8.82282C79.2008 10.1898 80.0952 10.9636 81.045 11.6654C81.4461 11.962 81.9014 12.1807 82.3321 12.4349C82.0508 13.7608 81.9709 13.8068 80.7613 13.3826C78.9238 12.7381 77.1523 11.975 75.6516 10.6479C73.4149 8.66966 73.412 6.02125 75.6768 4.06978C77.4496 2.5421 79.5397 1.69546 81.7364 1.08156C85.0552 0.154256 88.4446 -0.119516 91.8614 0.0449673C95.7877 0.233981 99.6201 0.901036 103.121 2.90125C104.096 3.45871 104.988 4.13803 105.654 5.0864C106.767 6.67053 106.717 8.33062 105.508 9.86256C104.693 10.8965 103.651 11.6415 102.499 12.188C101.425 12.6972 100.29 13.0676 99.1903 13.5195C98.6816 13.7285 98.3545 13.6589 98.2513 13.0425C98.2165 12.8349 98.1339 12.6358 98.0973 12.5138Z" fill="black"/>
</svg>
