<svg width="77" height="54" viewBox="0 0 77 54" fill="none" xmlns="http://www.w3.org/2000/svg">
<path d="M50.7376 43.062L50.7345 43.0645H46.0953L46.093 43.062V0.00333678L46.096 0L50.7353 0L50.7376 0.00250259V43.062Z" fill="black"/>
<path d="M42.6942 22.4516C42.628 18.9847 41.6608 16.2835 39.8167 14.4191C38.1027 12.6856 35.7657 11.8064 32.8721 11.8064C29.9784 11.8064 27.643 12.6856 25.9282 14.4191C24.0802 16.2835 23.1169 18.9847 23.0507 22.4516H23.0461V32.9032H23.0507C23.1169 36.3701 24.084 39.0721 25.9282 40.9365C27.643 42.67 29.9784 43.545 32.8721 43.545C35.7657 43.545 38.1027 42.6666 39.8167 40.9332C41.6608 39.0687 42.628 36.3668 42.6942 32.8999V22.4516ZM38.0534 32.5161C38.0534 36.6654 36.4556 38.5165 32.8721 38.5165C29.2885 38.5165 27.6915 36.6654 27.6915 32.5161V22.8395C27.6915 18.6902 29.2892 16.8399 32.8721 16.8399C36.4549 16.8399 38.0534 18.686 38.0534 22.8386V32.5161Z" fill="black"/>
<path d="M15.0073 12.4836V32.516C15.0073 36.6653 13.4088 38.5164 9.82597 38.5164C6.24316 38.5164 4.64464 36.6653 4.64464 32.516V12.4861H0L0 32.9031H0.00385C0.07084 36.37 1.03796 39.072 2.88134 40.9364C4.59613 42.6699 6.93 43.5449 9.82597 43.5449C11.9188 43.5449 13.8069 42.5439 15.3091 41.0607L15.0096 41.034V42.9643C15.0096 47.1136 13.4111 49.1582 9.82828 49.1582C6.48032 49.1582 5.22907 47.4948 4.93031 46.8225H4.92492L1.15192 49.3926C1.72942 50.6932 4.56071 53.9957 9.82828 53.9957C12.7219 53.9957 15.0581 53.1173 16.7729 51.3839C18.6163 49.5194 19.5834 46.8175 19.6504 43.3506H19.6543V12.4836H15.0073Z" fill="black"/>
<path d="M74.3204 32.5161V22.4516H74.3158C74.2495 18.9847 73.2824 16.2835 71.4383 14.4191C69.7242 12.6856 67.3881 11.8064 64.4944 11.8064V11.8181C59.2276 11.8181 56.3971 15.1065 55.8188 16.4062C55.8188 16.4062 55.8188 16.4062 55.8188 16.4103L59.5918 18.9805C59.5918 18.9805 59.5964 18.9805 59.5972 18.9805C59.6388 18.8804 60.6097 16.7432 64.4952 16.7432C68.078 16.7432 69.6757 18.6902 69.6757 22.8395V23.2023C68.2944 22.1671 66.5765 21.4847 64.4929 21.4847H63.7783C60.8846 21.4847 58.5477 22.364 56.8337 24.0966C54.9857 25.9619 54.0224 28.663 53.9562 32.1299V32.904C54.0224 36.371 54.9895 39.0729 56.8337 40.9373C58.5492 42.67 60.8862 43.545 63.7798 43.545H64.4944C67.3888 43.545 69.588 42.2153 71.1526 40.4627C71.1526 40.4669 71.1256 40.4627 71.128 40.4627C71.3309 40.798 71.5647 41.1101 71.8256 41.3945C73.5496 43.2681 75.691 43.545 76.9946 43.545L77 43.5392V38.519C74.7215 38.5148 74.3204 36.9174 74.3204 32.5161ZM64.4944 38.5165H63.7798C60.1963 38.5165 58.5985 36.6654 58.5985 32.5161C58.5985 28.3669 60.1963 26.5166 63.7798 26.5166H64.4944C68.0772 26.5166 69.675 28.3669 69.675 32.5161C69.675 36.6654 68.0772 38.5165 64.4944 38.5165Z" fill="black"/>
</svg>
