<svg width="153" height="33" viewBox="0 0 153 33" fill="none" xmlns="http://www.w3.org/2000/svg">
<path d="M8.7772 31.944C8.08674 31.944 7.23936 31.9147 6.23505 31.856C5.26213 31.8267 4.27351 31.768 3.2692 31.68C2.2649 31.592 0.753231 31.5187 0 31.46L0 0L4.63444 0V9.68643C5.2309 9.548 6.53813 9.58039 7.64736 9.548C9.15398 9.504 10.6081 9.504 11.7694 9.504C13.9349 9.504 15.1954 9.44533 16.4508 10.208C17.7375 10.9413 18.6477 12.1293 19.1812 13.772C19.7462 15.4147 20.0286 17.5413 20.0286 20.152C20.0286 23.0853 19.6834 25.4173 18.9929 27.148C18.3338 28.8493 17.1883 30.0813 15.5563 30.844C13.9243 31.5773 11.6646 31.944 8.7772 31.944ZM8.73013 28.6C10.8015 28.6 12.3394 28.3067 13.3437 27.72C14.348 27.1333 15.0228 26.224 15.368 24.992C15.7132 23.7307 15.8858 22.1173 15.8858 20.152C15.8858 18.3333 15.4984 16.0116 15.4151 15.708C15.2857 15.2367 15.138 14.3098 14.3847 13.7818C13.6315 13.2244 11.8658 13.1707 11.1155 13.1707C10.3652 13.1707 8.28058 13.1707 7.19244 13.1707C6.02781 13.1707 5.35628 13.3173 4.63444 13.552V28.38C5.29351 28.4387 6.03105 28.4973 6.84705 28.556C7.69444 28.5853 8.32213 28.6 8.73013 28.6Z" fill="black"/>
<path d="M26.9054 31.504V9.50399H30.8599V31.504H26.9054ZM26.9054 6.06222V1.97021H30.8599V6.06222H26.9054Z" fill="black"/>
<path d="M38.7411 31.5039V9.50391H42.6954C43.154 9.50391 43.5663 9.50391 44.4617 9.50391C44.8802 9.50391 46.1713 9.50391 47.0771 9.50391C48.1325 9.50391 49.3614 9.50391 50.1774 9.50391C52.3429 9.50391 54.0063 9.87057 55.1675 10.6039C56.3288 11.3079 56.7557 12.0119 57.1951 13.5959C57.6345 15.1799 57.8543 17.2772 57.8543 19.8879V31.5039H53.8527V20.0199C53.8527 18.1719 53.7272 16.6906 53.4762 15.5759C53.2565 14.4612 52.9983 14.2803 52.3079 13.7817C51.6488 13.283 50.5481 13.2131 50.3463 13.1706C50.1446 13.128 47.7529 13.1253 46.7287 13.1253C45.9286 13.1253 45.1156 13.1253 44.4617 13.1253C43.8079 13.1253 43.6125 13.1253 43.154 13.1253V31.5039H38.7411Z" fill="black"/>
<path d="M75.9598 31.944C73.3235 31.944 71.2521 31.5186 69.7457 30.668C68.2706 29.8173 67.2349 28.5413 66.6386 26.84C66.0423 25.1093 65.7441 22.9093 65.7441 20.24C65.7441 17.7173 66.0737 15.6346 66.7328 13.992C67.3918 12.32 68.4746 11.088 69.9811 10.296C71.4875 9.47463 73.4804 9.06396 75.9598 9.06396C78.4706 9.06396 80.4792 9.47463 81.9857 10.296C83.4921 11.088 84.5748 12.32 85.2339 13.992C85.8929 15.6346 86.2226 17.7173 86.2226 20.24C86.2226 22.9093 85.9088 25.1093 85.2811 26.84C84.6848 28.5413 83.6491 29.8173 82.174 30.668C80.6989 31.5186 78.6275 31.944 75.9598 31.944ZM75.9598 28.732C77.7174 28.732 79.0355 28.4533 79.9143 27.896C80.7931 27.3093 81.3737 26.3853 81.6561 25.124C81.9386 23.8626 82.0798 22.2346 82.0798 20.24C82.0798 18.2746 81.8915 16.7053 81.5149 15.532C81.1697 14.3586 80.5577 13.5226 79.6789 13.024C78.8001 12.5253 77.5604 12.276 75.9598 12.276C74.3906 12.276 73.1509 12.5253 72.2408 13.024C71.362 13.5226 70.7343 14.3586 70.3577 15.532C70.0124 16.7053 69.8398 18.2746 69.8398 20.24C69.8398 22.2346 69.9811 23.8626 70.2635 25.124C70.546 26.3853 71.1266 27.3093 72.0054 27.896C72.8841 28.4533 74.2023 28.732 75.9598 28.732Z" fill="black"/>
<path d="M104.6 32.032C102.873 32.032 101.477 31.7973 100.41 31.328C99.3426 30.8586 98.5737 30.052 98.1029 28.908C97.6636 27.7346 97.4439 26.1066 97.4439 24.024V15.5222H93.3586V9.41597H97.4439V3.56396H103.705V9.41597H111.039V15.5222H103.705V22.484C103.705 23.628 103.752 24.5226 103.846 25.168C103.972 25.8133 104.223 26.268 104.6 26.532C104.976 26.796 105.557 26.928 106.341 26.928C106.561 26.928 106.891 26.9133 107.33 26.884C107.769 26.8546 106.901 26.8253 107.34 26.796C107.78 26.7666 108.141 26.7373 108.423 26.708L108.612 31.416C107.858 31.5333 108.256 31.6653 107.189 31.812C106.153 31.9586 105.29 32.032 104.6 32.032Z" fill="black"/>
<path d="M126.712 31.9879C124.107 31.9879 122.036 31.5772 120.498 30.7559C118.991 29.9346 117.909 28.6879 117.249 27.0159C116.59 25.3439 116.261 23.2466 116.261 20.7239C116.261 17.9959 116.669 15.7666 117.485 14.0359C118.332 12.3052 119.556 11.0292 121.157 10.2079C122.757 9.35722 124.735 8.93188 127.088 8.93188C130.572 8.93188 133.192 9.75322 134.95 11.3959C136.739 13.0386 137.633 15.6346 137.633 19.1839L137.351 22.4399H122.569C122.601 24.0826 122.886 24.8452 123.577 25.6666C124.267 26.4879 125.441 27.0599 127.136 27.0599C128.108 27.0599 129.176 27.0452 130.337 27.0159C131.498 26.9572 132.643 26.8986 133.773 26.8399C134.934 26.7812 134.615 26.7226 135.431 26.6639L135.666 31.0639C134.882 31.1812 135.201 31.3132 134.008 31.4599C132.816 31.6066 131.576 31.7239 130.29 31.8119C129.034 31.9292 127.842 31.9879 126.712 31.9879ZM122.569 18.6999H131.372C131.372 16.7052 131.027 15.3119 130.337 14.5199C129.678 13.7279 128.595 13.3319 127.088 13.3319C125.613 13.3319 124.484 13.7426 123.699 14.5639C122.946 15.3852 122.569 16.7639 122.569 18.6999Z" fill="black"/>
<path d="M147.115 32.032C147.115 32.032 145.908 31.064 145.908 29.0595C145.908 18.0592 145.908 0.395996 145.908 0.395996L152.17 0.395996C152.17 0.395996 152.17 19.8929 152.17 29.0595C152.17 30.1764 153 31.812 153 31.812L147.115 32.032Z" fill="black"/>
</svg>
