<svg width="251" height="26" viewBox="0 0 251 26" fill="none" xmlns="http://www.w3.org/2000/svg">
<path d="M84.861 0.69165L110.569 0.69165V6.04034H101.613V20.5638H93.7507V6.04034H84.861V0.69165Z" fill="black"/>
<path fill-rule="evenodd" clip-rule="evenodd" d="M0.154724 0.722656L0.154732 20.5677L8.21568 20.5205V13.6854H14.4964L19.8755 20.5146H27.6129L22.0307 13.4275C26.3128 12.5436 27.9318 9.63656 27.9318 7.15141C27.9318 4.08979 26.6864 0.722625 18.608 0.722705L0.154724 0.722656ZM8.19033 5.15964H18.1166C18.1166 5.15964 20.0753 5.15964 20.0753 7.05271C20.0753 8.94579 18.1166 9.0943 18.1166 9.0943H8.19033V5.15964Z" fill="black"/>
<path fill-rule="evenodd" clip-rule="evenodd" d="M145.213 0.688232V20.5333L153.274 20.4861V13.651H158.029L164.806 20.4802H173.317L166.404 13.5134C171.199 12.8106 172.99 9.73048 172.99 7.11699C172.99 4.05537 171.744 0.688201 163.666 0.688281L145.213 0.688232ZM153.248 5.12522H163.49C163.49 5.12522 165.51 5.12522 165.51 7.01829C165.51 8.91137 163.49 9.05988 163.49 9.05988H153.248V5.12522Z" fill="black"/>
<path fill-rule="evenodd" clip-rule="evenodd" d="M111.553 10.158C111.553 6.00397 113.554 0.30542 126.794 0.30542H128.11C141.35 0.30542 143.35 6.00397 143.35 10.158V10.9569C143.35 15.0311 141.323 20.916 128.11 20.916H126.794C113.606 20.916 111.553 15.0311 111.553 10.9569V10.158ZM119.865 10.3947C119.865 8.41227 120.819 5.69277 127.138 5.69277H127.766C134.084 5.69277 135.039 8.41227 135.039 10.3947V10.7759C135.039 12.7202 134.072 15.5287 127.766 15.5287H127.138C120.844 15.5287 119.865 12.7202 119.865 10.7759V10.3947Z" fill="black"/>
<path d="M40.9068 0.69165L64.147 0.69165V5.46447H48.7591V8.14701H63.7672V12.6716H48.7591V15.6694H64.147V20.5206H40.9068V0.69165Z" fill="black"/>
<path d="M30.3044 0.69165H38.1572V20.5206H30.3044V0.69165Z" fill="black"/>
<path d="M66.7075 0.69165H74.6326V14.8796H89.1529V20.5637H66.7075V0.69165Z" fill="black"/>
<path d="M209.881 15.7689C209.881 16.6946 208.988 17.4875 208.028 17.4875H207.093V20.1067H208.028C210.577 20.1067 212.669 18.1517 212.669 15.7689V10.9393H217.547V20.1067H220.335V8.32007H209.881V15.7689Z" fill="black"/>
<path d="M232.88 14.8656C232.88 16.7282 231.447 18.4042 229.465 18.4042H229.325C227.343 18.4042 225.911 16.9398 225.911 14.8656V8.32007H223.123V14.8656C223.123 18.7971 225.992 20.7616 229.325 20.7616H229.465C230.951 20.7616 232.114 20.2985 232.88 19.4519V20.2377C232.88 22.7141 231.2 23.7082 229.465 23.7082H229.325C227.839 23.7082 226.451 22.7511 225.911 21.5235L223.59 22.3278C224.469 24.4232 226.802 26.0001 229.325 26.0001H229.465C233.024 26.0001 235.667 23.5607 235.667 20.2377V8.32007H232.88V14.8656Z" fill="black"/>
<path d="M248.212 8.32007V12.9038H241.243V8.32007H238.455V20.1067H241.243V15.523H248.212V20.1067H251V8.32007H248.212Z" fill="black"/>
<path d="M182.024 20.1067V13.3675H185.258C185.49 13.3675 185.708 13.38 185.91 13.4049C186.112 13.4299 186.285 13.4611 186.43 13.4985C186.773 13.5942 187.076 13.7814 187.339 14.0601C187.602 14.3347 187.734 14.7153 187.734 15.202C187.734 15.4891 187.686 15.7262 187.589 15.9134C187.493 16.0964 187.365 16.2504 187.207 16.3752C187.133 16.4334 187.056 16.4833 186.977 16.5249C186.898 16.5665 186.819 16.5998 186.74 16.6248C186.911 16.6497 187.073 16.6976 187.227 16.7683C187.468 16.8806 187.67 17.047 187.833 17.2675C188 17.488 188.083 17.7979 188.083 18.1973C188.083 18.6507 187.967 19.0334 187.734 19.3454C187.506 19.6533 187.17 19.8675 186.726 19.9881C186.564 20.0297 186.377 20.0609 186.167 20.0817C185.956 20.0984 185.741 20.1067 185.521 20.1067H182.024ZM183.631 18.9461H185.409C185.501 18.9461 185.602 18.9377 185.712 18.9211C185.822 18.9045 185.921 18.8816 186.009 18.8525C186.167 18.7984 186.281 18.7027 186.351 18.5654C186.426 18.4281 186.463 18.2846 186.463 18.1349C186.463 17.931 186.408 17.7688 186.298 17.6481C186.193 17.5233 186.066 17.4401 185.916 17.3985C185.829 17.3652 185.732 17.3465 185.627 17.3424C185.526 17.3341 185.442 17.3299 185.376 17.3299H183.631V18.9461ZM183.631 16.1505H184.948C185.084 16.1505 185.216 16.1443 185.343 16.1318C185.475 16.1152 185.585 16.0881 185.673 16.0507C185.818 15.9966 185.923 15.9051 185.989 15.7761C186.059 15.6472 186.094 15.5036 186.094 15.3456C186.094 15.1792 186.055 15.0294 185.976 14.8963C185.901 14.759 185.78 14.6675 185.613 14.6217C185.504 14.5801 185.37 14.5572 185.212 14.5531C185.058 14.5489 184.959 14.5468 184.915 14.5468H183.631V16.1505ZM189.79 12.3441V10.9651H191.377V12.3441H189.79ZM189.79 20.1067V13.3675H191.377V20.1067H189.79ZM193.087 21.6043V18.9273C193.473 18.9273 193.747 18.8025 193.91 18.5529C194.072 18.3033 194.202 17.8707 194.299 17.255C194.36 16.8889 194.41 16.502 194.45 16.0944C194.49 15.6867 194.522 15.2561 194.549 14.8027C194.58 14.3492 194.606 13.8708 194.628 13.3675H199.923V18.9273H200.641V21.6043H199.139V20.1067H194.582V21.6043H193.087ZM195.214 18.9273H198.342V14.5468H196.017C196.004 14.7964 195.989 15.0523 195.971 15.3144C195.954 15.5723 195.934 15.8302 195.912 16.0881C195.89 16.346 195.866 16.5936 195.84 16.8307C195.818 17.0636 195.791 17.28 195.761 17.4797C195.712 17.8291 195.653 18.1161 195.583 18.3408C195.513 18.5654 195.39 18.7609 195.214 18.9273Z" fill="black"/>
</svg>
