<svg width="135" height="45" viewBox="0 0 135 45" fill="none" xmlns="http://www.w3.org/2000/svg">
<g clip-path="url(#clip0_19_1831)">
<path fill-rule="evenodd" clip-rule="evenodd" d="M18.0617 5.24755C15.3261 4.99305 12.5827 5.68504 10.2777 7.21693C7.97179 8.74939 6.23781 11.0345 5.36786 13.7059C4.49774 16.3779 4.54612 19.2711 5.50469 21.9111C6.46306 24.5505 8.27175 26.7741 10.6266 28.226C12.9806 29.6775 15.7451 30.2751 18.4709 29.9268C21.1969 29.5786 23.7334 28.3034 25.664 26.2999C27.209 24.6965 28.2925 22.7024 28.8091 20.5346H17.9134V15.8794H33.75V20.5346H33.5761C32.9953 23.9126 31.4192 27.0495 29.0353 29.5235C26.3731 32.2864 22.8597 34.0594 19.0653 34.5442C15.2705 35.029 11.4285 34.1952 8.16718 32.1843C4.90671 30.174 2.42246 27.1085 1.11024 23.4945C-0.201771 19.881 -0.267684 15.9253 0.922823 12.2695C2.1135 8.61316 4.49351 5.46496 7.68423 3.34445C10.8758 1.22336 14.6873 0.258192 18.4963 0.612541C22.305 0.96687 25.8763 2.61861 28.6299 5.28929L25.37 8.62473C23.3744 6.68926 20.7976 5.50206 18.0617 5.24755Z" fill="black"/>
<path fill-rule="evenodd" clip-rule="evenodd" d="M46.4711 16.8104C43.0952 16.8104 40.2403 19.6392 40.2403 23.276C40.2403 26.9128 43.0952 29.7415 46.4711 29.7415C49.847 29.7415 52.7019 26.9128 52.7019 23.276C52.7019 19.6392 49.847 16.8104 46.4711 16.8104ZM35.5673 23.276C35.5673 17.2002 40.3838 12.1553 46.4711 12.1553C52.5584 12.1553 57.375 17.2002 57.375 23.276C57.375 29.3518 52.5584 34.3967 46.4711 34.3967C40.3838 34.3967 35.5673 29.3518 35.5673 23.276Z" fill="black"/>
<path fill-rule="evenodd" clip-rule="evenodd" d="M70.0961 16.8104C66.7202 16.8104 63.8653 19.6392 63.8653 23.276C63.8653 26.9128 66.7202 29.7415 70.0961 29.7415C73.472 29.7415 76.3269 26.9128 76.3269 23.276C76.3269 19.6392 73.472 16.8104 70.0961 16.8104ZM59.1923 23.276C59.1923 17.2002 64.0088 12.1553 70.0961 12.1553C76.1834 12.1553 81 17.2002 81 23.276C81 29.3518 76.1834 34.3967 70.0961 34.3967C64.0088 34.3967 59.1923 29.3518 59.1923 23.276Z" fill="black"/>
<path fill-rule="evenodd" clip-rule="evenodd" d="M92.9423 16.8104C89.776 16.8104 86.9712 19.5702 86.9712 23.276C86.9712 26.9817 89.776 29.7415 92.9423 29.7415C96.1087 29.7415 98.9135 26.9817 98.9135 23.276C98.9135 19.5702 96.1087 16.8104 92.9423 16.8104ZM82.2981 23.276C82.2981 17.2691 86.9323 12.1553 92.9423 12.1553C98.9524 12.1553 103.587 17.2691 103.587 23.276C103.587 29.2828 98.9524 34.3967 92.9423 34.3967C86.9323 34.3967 82.2981 29.2828 82.2981 23.276Z" fill="black"/>
<path fill-rule="evenodd" clip-rule="evenodd" d="M99.1731 29.2241V12.6724H103.846V33.2803C104.089 35.1244 103.841 37.0166 103.103 38.7598C102.01 41.3414 99.9328 43.3848 97.3276 44.4405C94.7223 45.4961 91.8028 45.4776 89.2113 44.389C86.6198 43.3004 84.5685 41.2308 83.5088 38.6356L87.8374 36.8815C88.4302 38.3331 89.5775 39.4907 91.0271 40.0996C92.4766 40.7085 94.1096 40.7189 95.5667 40.1284C97.0239 39.5379 98.186 38.395 98.7972 36.951C99.4085 35.507 99.4188 33.8803 98.8261 32.4287L97.5175 29.2241H99.1731Z" fill="black"/>
<path fill-rule="evenodd" clip-rule="evenodd" d="M107.481 34.9139V1.29321H112.154V34.9139H107.481Z" fill="black"/>
<path fill-rule="evenodd" clip-rule="evenodd" d="M128.185 18.0404C127.041 17.2216 125.712 16.8714 124.416 17.0039C123.118 17.1365 121.87 17.751 120.892 18.7967C119.909 19.8466 119.26 21.2677 119.097 22.838C119.095 22.8608 119.092 22.8837 119.09 22.9065L129.279 19.04C128.95 18.6604 128.583 18.3247 128.185 18.0404ZM130.295 23.6359L129.873 27.6981C129.151 28.8131 128.151 29.626 127.033 30.0592C125.795 30.5382 124.445 30.5426 123.188 30.0644C121.983 29.6057 120.903 28.7156 120.143 27.4885L130.295 23.6359ZM123.939 12.373C126.413 12.1202 128.875 12.8015 130.912 14.2599C132.944 15.7145 134.428 17.8479 135.161 20.2787L135.295 20.7247L134.419 29.1619L134.187 29.5785C132.958 31.7816 131.044 33.5003 128.725 34.3981C126.401 35.298 123.853 35.3007 121.521 34.413C119.194 33.5276 117.256 31.8248 115.989 29.6369C114.723 27.4511 114.186 24.886 114.449 22.359C114.711 19.8315 115.763 17.4495 117.474 15.6219C119.188 13.7901 121.466 12.6257 123.939 12.373Z" fill="black"/>
</g>
<defs>
<clipPath id="clip0_19_1831">
<rect width="135" height="45" fill="white"/>
</clipPath>
</defs>
</svg>
